<?xml version="1.0" encoding="UTF-8" standalone="no"?>
<!DOCTYPE svg PUBLIC "-//W3C//DTD SVG 1.1//EN"
 "http://www.w3.org/Graphics/SVG/1.1/DTD/svg11.dtd">
<!-- Generated by graphviz version 2.43.0 (0)
 -->
<!-- Title: %3 Pages: 1 -->
<svg width="1758pt" height="404pt"
 viewBox="0.00 0.00 1757.98 404.00" xmlns="http://www.w3.org/2000/svg" xmlns:xlink="http://www.w3.org/1999/xlink">
<g id="graph0" class="graph" transform="scale(1 1) rotate(0) translate(4 400)">
<title>%3</title>
<polygon fill="white" stroke="transparent" points="-4,4 -4,-400 1753.98,-400 1753.98,4 -4,4"/>
<!-- daylight -->
<g id="node1" class="node">
<title>daylight</title>
<ellipse fill="none" stroke="black" cx="800.79" cy="-306" rx="48.99" ry="18"/>
<text text-anchor="middle" x="800.79" y="-302.3" font-family="Times,serif" font-size="14.00">daylight</text>
</g>
<!-- daylighteast -->
<g id="node2" class="node">
<title>daylighteast</title>
<ellipse fill="none" stroke="black" cx="800.79" cy="-234" rx="68.49" ry="18"/>
<text text-anchor="middle" x="800.79" y="-230.3" font-family="Times,serif" font-size="14.00">daylighteast</text>
</g>
<!-- daylight&#45;&gt;daylighteast -->
<g id="edge1" class="edge">
<title>daylight&#45;&gt;daylighteast</title>
<path fill="none" stroke="black" d="M800.79,-287.7C800.79,-279.98 800.79,-270.71 800.79,-262.11"/>
<polygon fill="black" stroke="black" points="804.29,-262.1 800.79,-252.1 797.29,-262.1 804.29,-262.1"/>
</g>
<!-- pointdaylight -->
<g id="node3" class="node">
<title>pointdaylight</title>
<ellipse fill="none" stroke="black" cx="72.79" cy="-162" rx="72.59" ry="18"/>
<text text-anchor="middle" x="72.79" y="-158.3" font-family="Times,serif" font-size="14.00">pointdaylight</text>
</g>
<!-- daylighteast&#45;&gt;pointdaylight -->
<g id="edge2" class="edge">
<title>daylighteast&#45;&gt;pointdaylight</title>
<path fill="none" stroke="black" d="M734,-230.22C616.42,-224.73 365.02,-210.3 154.79,-180 148.22,-179.05 141.38,-177.9 134.58,-176.65"/>
<polygon fill="black" stroke="black" points="135.16,-173.2 124.68,-174.76 133.84,-180.07 135.16,-173.2"/>
</g>
<!-- closedsemicirclewest -->
<g id="node4" class="node">
<title>closedsemicirclewest</title>
<ellipse fill="none" stroke="black" cx="272.79" cy="-162" rx="109.38" ry="18"/>
<text text-anchor="middle" x="272.79" y="-158.3" font-family="Times,serif" font-size="14.00">closedsemicirclewest</text>
</g>
<!-- daylighteast&#45;&gt;closedsemicirclewest -->
<g id="edge3" class="edge">
<title>daylighteast&#45;&gt;closedsemicirclewest</title>
<path fill="none" stroke="black" d="M740.32,-225.46C660.3,-215.42 514.88,-196.96 390.79,-180 381.36,-178.71 371.5,-177.34 361.68,-175.95"/>
<polygon fill="black" stroke="black" points="361.87,-172.44 351.48,-174.5 360.89,-179.37 361.87,-172.44"/>
</g>
<!-- opensemicircleeast -->
<g id="node5" class="node">
<title>opensemicircleeast</title>
<ellipse fill="none" stroke="black" cx="499.79" cy="-162" rx="100.18" ry="18"/>
<text text-anchor="middle" x="499.79" y="-158.3" font-family="Times,serif" font-size="14.00">opensemicircleeast</text>
</g>
<!-- daylighteast&#45;&gt;opensemicircleeast -->
<g id="edge4" class="edge">
<title>daylighteast&#45;&gt;opensemicircleeast</title>
<path fill="none" stroke="black" d="M751.43,-221.52C701.55,-209.92 624.1,-191.91 568.29,-178.93"/>
<polygon fill="black" stroke="black" points="569.02,-175.51 558.48,-176.65 567.43,-182.32 569.02,-175.51"/>
</g>
<!-- lineplanetrace -->
<g id="node6" class="node">
<title>lineplanetrace</title>
<ellipse fill="none" stroke="black" cx="694.79" cy="-162" rx="77.19" ry="18"/>
<text text-anchor="middle" x="694.79" y="-158.3" font-family="Times,serif" font-size="14.00">lineplanetrace</text>
</g>
<!-- daylighteast&#45;&gt;lineplanetrace -->
<g id="edge5" class="edge">
<title>daylighteast&#45;&gt;lineplanetrace</title>
<path fill="none" stroke="black" d="M776.74,-217.12C762.31,-207.59 743.75,-195.33 727.94,-184.89"/>
<polygon fill="black" stroke="black" points="729.76,-181.9 719.49,-179.31 725.9,-187.74 729.76,-181.9"/>
</g>
<!-- daylighteqareaeastgen -->
<g id="node7" class="node">
<title>daylighteqareaeastgen</title>
<ellipse fill="none" stroke="black" cx="906.79" cy="-162" rx="116.98" ry="18"/>
<text text-anchor="middle" x="906.79" y="-158.3" font-family="Times,serif" font-size="14.00">daylighteqareaeastgen</text>
</g>
<!-- daylighteast&#45;&gt;daylighteqareaeastgen -->
<g id="edge6" class="edge">
<title>daylighteast&#45;&gt;daylighteqareaeastgen</title>
<path fill="none" stroke="black" d="M824.85,-217.12C839.07,-207.72 857.31,-195.68 872.97,-185.34"/>
<polygon fill="black" stroke="black" points="874.94,-188.23 881.36,-179.8 871.08,-182.39 874.94,-188.23"/>
</g>
<!-- planeeqareaeastgen -->
<g id="node8" class="node">
<title>planeeqareaeastgen</title>
<ellipse fill="none" stroke="black" cx="1408.79" cy="-162" rx="104.78" ry="18"/>
<text text-anchor="middle" x="1408.79" y="-158.3" font-family="Times,serif" font-size="14.00">planeeqareaeastgen</text>
</g>
<!-- daylighteast&#45;&gt;planeeqareaeastgen -->
<g id="edge7" class="edge">
<title>daylighteast&#45;&gt;planeeqareaeastgen</title>
<path fill="none" stroke="black" d="M864.06,-227.05C958.12,-218.02 1140.36,-199.79 1294.79,-180 1304.22,-178.79 1314.08,-177.45 1323.87,-176.06"/>
<polygon fill="black" stroke="black" points="1324.64,-179.48 1334.04,-174.6 1323.65,-172.55 1324.64,-179.48"/>
</g>
<!-- daylighteqangleeastgen -->
<g id="node9" class="node">
<title>daylighteqangleeastgen</title>
<ellipse fill="none" stroke="black" cx="1163.79" cy="-162" rx="122.38" ry="18"/>
<text text-anchor="middle" x="1163.79" y="-158.3" font-family="Times,serif" font-size="14.00">daylighteqangleeastgen</text>
</g>
<!-- daylighteast&#45;&gt;daylighteqangleeastgen -->
<g id="edge8" class="edge">
<title>daylighteast&#45;&gt;daylighteqangleeastgen</title>
<path fill="none" stroke="black" d="M854.36,-222.67C914.6,-211.05 1013.11,-192.06 1082.78,-178.62"/>
<polygon fill="black" stroke="black" points="1083.68,-182.01 1092.84,-176.68 1082.36,-175.14 1083.68,-182.01"/>
</g>
<!-- planeeqangleeastgen -->
<g id="node10" class="node">
<title>planeeqangleeastgen</title>
<ellipse fill="none" stroke="black" cx="1640.79" cy="-162" rx="109.38" ry="18"/>
<text text-anchor="middle" x="1640.79" y="-158.3" font-family="Times,serif" font-size="14.00">planeeqangleeastgen</text>
</g>
<!-- daylighteast&#45;&gt;planeeqangleeastgen -->
<g id="edge9" class="edge">
<title>daylighteast&#45;&gt;planeeqangleeastgen</title>
<path fill="none" stroke="black" d="M867.13,-229.68C994.48,-222.97 1281.95,-206.16 1522.79,-180 1532.93,-178.9 1543.53,-177.59 1554.05,-176.2"/>
<polygon fill="black" stroke="black" points="1554.65,-179.65 1564.09,-174.84 1553.71,-172.71 1554.65,-179.65"/>
</g>
<!-- genrakelist0to90uniform -->
<g id="node11" class="node">
<title>genrakelist0to90uniform</title>
<ellipse fill="none" stroke="black" cx="1034.79" cy="-90" rx="126.18" ry="18"/>
<text text-anchor="middle" x="1034.79" y="-86.3" font-family="Times,serif" font-size="14.00">genrakelist0to90uniform</text>
</g>
<!-- daylighteqareaeastgen&#45;&gt;genrakelist0to90uniform -->
<g id="edge13" class="edge">
<title>daylighteqareaeastgen&#45;&gt;genrakelist0to90uniform</title>
<path fill="none" stroke="black" d="M936.8,-144.59C954.33,-135 976.65,-122.8 995.56,-112.46"/>
<polygon fill="black" stroke="black" points="997.43,-115.42 1004.53,-107.55 994.07,-109.28 997.43,-115.42"/>
</g>
<!-- genrakelist0to90triangular -->
<g id="node12" class="node">
<title>genrakelist0to90triangular</title>
<ellipse fill="none" stroke="black" cx="1315.79" cy="-90" rx="136.48" ry="18"/>
<text text-anchor="middle" x="1315.79" y="-86.3" font-family="Times,serif" font-size="14.00">genrakelist0to90triangular</text>
</g>
<!-- daylighteqareaeastgen&#45;&gt;genrakelist0to90triangular -->
<g id="edge14" class="edge">
<title>daylighteqareaeastgen&#45;&gt;genrakelist0to90triangular</title>
<path fill="none" stroke="black" d="M981.81,-148.16C1050.64,-136.38 1152.71,-118.91 1225.89,-106.39"/>
<polygon fill="black" stroke="black" points="1226.75,-109.79 1236.01,-104.65 1225.57,-102.89 1226.75,-109.79"/>
</g>
<!-- genrakelist0to90saltbox -->
<g id="node13" class="node">
<title>genrakelist0to90saltbox</title>
<ellipse fill="none" stroke="black" cx="766.79" cy="-90" rx="123.48" ry="18"/>
<text text-anchor="middle" x="766.79" y="-86.3" font-family="Times,serif" font-size="14.00">genrakelist0to90saltbox</text>
</g>
<!-- daylighteqareaeastgen&#45;&gt;genrakelist0to90saltbox -->
<g id="edge15" class="edge">
<title>daylighteqareaeastgen&#45;&gt;genrakelist0to90saltbox</title>
<path fill="none" stroke="black" d="M873.97,-144.59C854.54,-134.87 829.72,-122.47 808.87,-112.04"/>
<polygon fill="black" stroke="black" points="810.41,-108.89 799.9,-107.55 807.28,-115.15 810.41,-108.89"/>
</g>
<!-- daylighteqangleeastgen&#45;&gt;genrakelist0to90uniform -->
<g id="edge10" class="edge">
<title>daylighteqangleeastgen&#45;&gt;genrakelist0to90uniform</title>
<path fill="none" stroke="black" d="M1133.22,-144.41C1115.68,-134.89 1093.45,-122.83 1074.56,-112.58"/>
<polygon fill="black" stroke="black" points="1076.05,-109.41 1065.59,-107.71 1072.71,-115.56 1076.05,-109.41"/>
</g>
<!-- daylighteqangleeastgen&#45;&gt;genrakelist0to90triangular -->
<g id="edge11" class="edge">
<title>daylighteqangleeastgen&#45;&gt;genrakelist0to90triangular</title>
<path fill="none" stroke="black" d="M1199.05,-144.76C1220.48,-134.9 1248.04,-122.2 1271,-111.63"/>
<polygon fill="black" stroke="black" points="1272.59,-114.75 1280.2,-107.39 1269.66,-108.39 1272.59,-114.75"/>
</g>
<!-- daylighteqangleeastgen&#45;&gt;genrakelist0to90saltbox -->
<g id="edge12" class="edge">
<title>daylighteqangleeastgen&#45;&gt;genrakelist0to90saltbox</title>
<path fill="none" stroke="black" d="M1088.65,-147.75C1021.38,-135.89 922.78,-118.5 852.46,-106.11"/>
<polygon fill="black" stroke="black" points="852.76,-102.6 842.3,-104.31 851.54,-109.5 852.76,-102.6"/>
</g>
<!-- dip2maxpoints -->
<g id="node14" class="node">
<title>dip2maxpoints</title>
<ellipse fill="none" stroke="black" cx="1098.79" cy="-18" rx="79.09" ry="18"/>
<text text-anchor="middle" x="1098.79" y="-14.3" font-family="Times,serif" font-size="14.00">dip2maxpoints</text>
</g>
<!-- genrakelist0to90uniform&#45;&gt;dip2maxpoints -->
<g id="edge16" class="edge">
<title>genrakelist0to90uniform&#45;&gt;dip2maxpoints</title>
<path fill="none" stroke="black" d="M1050.29,-72.05C1058.15,-63.46 1067.84,-52.86 1076.49,-43.4"/>
<polygon fill="black" stroke="black" points="1079.28,-45.53 1083.44,-35.79 1074.11,-40.81 1079.28,-45.53"/>
</g>
<!-- genrakelist0to90triangular&#45;&gt;dip2maxpoints -->
<g id="edge18" class="edge">
<title>genrakelist0to90triangular&#45;&gt;dip2maxpoints</title>
<path fill="none" stroke="black" d="M1266.55,-73.12C1232.49,-62.13 1187.19,-47.51 1152.25,-36.24"/>
<polygon fill="black" stroke="black" points="1153.28,-32.9 1142.69,-33.16 1151.13,-39.56 1153.28,-32.9"/>
</g>
<!-- dip2rakeofmaxcurvature -->
<g id="node15" class="node">
<title>dip2rakeofmaxcurvature</title>
<ellipse fill="none" stroke="black" cx="875.79" cy="-18" rx="125.38" ry="18"/>
<text text-anchor="middle" x="875.79" y="-14.3" font-family="Times,serif" font-size="14.00">dip2rakeofmaxcurvature</text>
</g>
<!-- genrakelist0to90triangular&#45;&gt;dip2rakeofmaxcurvature -->
<g id="edge17" class="edge">
<title>genrakelist0to90triangular&#45;&gt;dip2rakeofmaxcurvature</title>
<path fill="none" stroke="black" d="M1232.26,-75.71C1156.4,-63.64 1044.78,-45.88 966.71,-33.46"/>
<polygon fill="black" stroke="black" points="966.83,-29.94 956.41,-31.82 965.73,-36.85 966.83,-29.94"/>
</g>
<!-- rndtriang -->
<g id="node16" class="node">
<title>rndtriang</title>
<ellipse fill="none" stroke="black" cx="1315.79" cy="-18" rx="55.49" ry="18"/>
<text text-anchor="middle" x="1315.79" y="-14.3" font-family="Times,serif" font-size="14.00">rndtriang</text>
</g>
<!-- genrakelist0to90triangular&#45;&gt;rndtriang -->
<g id="edge19" class="edge">
<title>genrakelist0to90triangular&#45;&gt;rndtriang</title>
<path fill="none" stroke="black" d="M1315.79,-71.7C1315.79,-63.98 1315.79,-54.71 1315.79,-46.11"/>
<polygon fill="black" stroke="black" points="1319.29,-46.1 1315.79,-36.1 1312.29,-46.1 1319.29,-46.1"/>
</g>
<!-- genrakelist0to90saltbox&#45;&gt;dip2maxpoints -->
<g id="edge21" class="edge">
<title>genrakelist0to90saltbox&#45;&gt;dip2maxpoints</title>
<path fill="none" stroke="black" d="M833.98,-74.83C891.89,-62.62 975.03,-45.09 1032.64,-32.95"/>
<polygon fill="black" stroke="black" points="1033.67,-36.31 1042.73,-30.82 1032.23,-29.46 1033.67,-36.31"/>
</g>
<!-- genrakelist0to90saltbox&#45;&gt;dip2rakeofmaxcurvature -->
<g id="edge20" class="edge">
<title>genrakelist0to90saltbox&#45;&gt;dip2rakeofmaxcurvature</title>
<path fill="none" stroke="black" d="M792.9,-72.23C807.46,-62.88 825.77,-51.12 841.48,-41.04"/>
<polygon fill="black" stroke="black" points="843.38,-43.98 849.9,-35.63 839.59,-38.09 843.38,-43.98"/>
</g>
<!-- rndsaltbox -->
<g id="node17" class="node">
<title>rndsaltbox</title>
<ellipse fill="none" stroke="black" cx="671.79" cy="-18" rx="60.39" ry="18"/>
<text text-anchor="middle" x="671.79" y="-14.3" font-family="Times,serif" font-size="14.00">rndsaltbox</text>
</g>
<!-- genrakelist0to90saltbox&#45;&gt;rndsaltbox -->
<g id="edge22" class="edge">
<title>genrakelist0to90saltbox&#45;&gt;rndsaltbox</title>
<path fill="none" stroke="black" d="M743.8,-72.05C731.06,-62.67 715.1,-50.91 701.43,-40.84"/>
<polygon fill="black" stroke="black" points="703.4,-37.94 693.28,-34.83 699.25,-43.58 703.4,-37.94"/>
</g>
<!-- plotalldipplanes -->
<g id="node18" class="node">
<title>plotalldipplanes</title>
<ellipse fill="none" stroke="black" cx="800.79" cy="-378" rx="85.29" ry="18"/>
<text text-anchor="middle" x="800.79" y="-374.3" font-family="Times,serif" font-size="14.00">plotalldipplanes</text>
</g>
<!-- plotalldipplanes&#45;&gt;daylight -->
<g id="edge23" class="edge">
<title>plotalldipplanes&#45;&gt;daylight</title>
<path fill="none" stroke="black" d="M800.79,-359.7C800.79,-351.98 800.79,-342.71 800.79,-334.11"/>
<polygon fill="black" stroke="black" points="804.29,-334.1 800.79,-324.1 797.29,-334.1 804.29,-334.1"/>
</g>
<!-- plotdaylight -->
<g id="node19" class="node">
<title>plotdaylight</title>
<ellipse fill="none" stroke="black" cx="970.79" cy="-378" rx="66.89" ry="18"/>
<text text-anchor="middle" x="970.79" y="-374.3" font-family="Times,serif" font-size="14.00">plotdaylight</text>
</g>
</g>
</svg>
