<?xml version="1.0" encoding="UTF-8" standalone="no"?>
<!DOCTYPE svg PUBLIC "-//W3C//DTD SVG 1.1//EN"
 "http://www.w3.org/Graphics/SVG/1.1/DTD/svg11.dtd">
<!-- Generated by graphviz version 2.43.0 (0)
 -->
<!-- Title: %3 Pages: 1 -->
<svg width="598pt" height="897pt"
 viewBox="0.00 0.00 597.50 897.00" xmlns="http://www.w3.org/2000/svg" xmlns:xlink="http://www.w3.org/1999/xlink">
<g id="graph0" class="graph" transform="scale(1 1) rotate(0) translate(4 893)">
<title>%3</title>
<polygon fill="white" stroke="transparent" points="-4,4 -4,-893 593.5,-893 593.5,4 -4,4"/>
<!-- start -->
<g id="node1" class="node">
<title>start</title>
<ellipse fill="none" stroke="black" cx="175" cy="-871" rx="33.29" ry="18"/>
<text text-anchor="middle" x="175" y="-867.3" font-family="Times,serif" font-size="14.00">start</text>
</g>
<!-- input -->
<g id="node2" class="node">
<title>input</title>
<polygon fill="none" stroke="black" points="234.16,-816 140.05,-816 115.84,-780 209.95,-780 234.16,-816"/>
<text text-anchor="start" x="152" y="-795.3" font-family="Times,serif" font-size="14.00">d</text>
<text text-anchor="start" x="162" y="-795.3" font-family="Times,serif" baseline-shift="sub" font-size="14.00">dir</text>
<text text-anchor="start" x="179" y="-795.3" font-family="Times,serif" font-size="14.00">, d</text>
</g>
<!-- start&#45;&gt;input -->
<g id="edge1" class="edge">
<title>start&#45;&gt;input</title>
<path fill="none" stroke="black" d="M175,-852.81C175,-844.79 175,-835.05 175,-826.07"/>
<polygon fill="black" stroke="black" points="178.5,-826.03 175,-816.03 171.5,-826.03 178.5,-826.03"/>
</g>
<!-- inputDefault -->
<g id="node3" class="node">
<title>inputDefault</title>
<polygon fill="none" stroke="black" points="261.1,-743 124.13,-743 88.9,-667 225.87,-667 261.1,-743"/>
<text text-anchor="start" x="148.5" y="-708.8" font-family="Times,serif" font-size="14.00">n ← 36 </text>
<text text-anchor="start" x="141.5" y="-693.8" font-family="Times,serif" font-size="14.00"> m ← 360</text>
</g>
<!-- input&#45;&gt;inputDefault -->
<g id="edge2" class="edge">
<title>input&#45;&gt;inputDefault</title>
<path fill="none" stroke="black" d="M175,-779.88C175,-772.25 175,-762.83 175,-753.31"/>
<polygon fill="black" stroke="black" points="178.5,-753.02 175,-743.02 171.5,-753.02 178.5,-753.02"/>
</g>
<!-- decision1 -->
<g id="node4" class="node">
<title>decision1</title>
<polygon fill="none" stroke="black" points="175,-630 105.29,-612 175,-594 244.71,-612 175,-630"/>
<text text-anchor="start" x="145" y="-608.3" font-family="Times,serif" font-size="14.00">d = 00 °</text>
</g>
<!-- inputDefault&#45;&gt;decision1 -->
<g id="edge3" class="edge">
<title>inputDefault&#45;&gt;decision1</title>
<path fill="none" stroke="black" d="M175,-666.99C175,-657.99 175,-648.54 175,-640.1"/>
<polygon fill="black" stroke="black" points="178.5,-640.06 175,-630.06 171.5,-640.06 178.5,-640.06"/>
</g>
<!-- pointDaylight -->
<g id="node5" class="node">
<title>pointDaylight</title>
<polygon fill="none" stroke="black" points="171,-543 15,-543 15,-507 171,-507 171,-543"/>
<text text-anchor="start" x="23" y="-521.3" font-family="Times,serif" font-size="14.00">E = [pointDaylight]</text>
</g>
<!-- decision1&#45;&gt;pointDaylight -->
<g id="edge4" class="edge">
<title>decision1&#45;&gt;pointDaylight</title>
<path fill="none" stroke="black" d="M161.83,-597.34C149.72,-584.79 131.49,-565.89 116.83,-550.7"/>
<polygon fill="black" stroke="black" points="119,-547.91 109.54,-543.15 113.96,-552.77 119,-547.91"/>
<text text-anchor="middle" x="144" y="-564.8" font-family="Times,serif" font-size="14.00">1</text>
</g>
<!-- decision2 -->
<g id="node8" class="node">
<title>decision2</title>
<polygon fill="none" stroke="black" points="259,-543 189.29,-525 259,-507 328.71,-525 259,-543"/>
<text text-anchor="start" x="229" y="-521.3" font-family="Times,serif" font-size="14.00">d = 90 °</text>
</g>
<!-- decision1&#45;&gt;decision2 -->
<g id="edge7" class="edge">
<title>decision1&#45;&gt;decision2</title>
<path fill="none" stroke="black" d="M188.5,-597.34C201.97,-583.71 222.85,-562.59 238.39,-546.85"/>
<polygon fill="black" stroke="black" points="241,-549.2 245.54,-539.62 236.02,-544.28 241,-549.2"/>
<text text-anchor="middle" x="227" y="-564.8" font-family="Times,serif" font-size="14.00">0</text>
</g>
<!-- openSemicircleEast -->
<g id="node6" class="node">
<title>openSemicircleEast</title>
<polygon fill="none" stroke="black" points="206,-400 0,-400 0,-364 206,-364 206,-400"/>
<text text-anchor="start" x="8" y="-378.3" font-family="Times,serif" font-size="14.00">D = [open semicircle east]</text>
</g>
<!-- pointDaylight&#45;&gt;openSemicircleEast -->
<g id="edge5" class="edge">
<title>pointDaylight&#45;&gt;openSemicircleEast</title>
<path fill="none" stroke="black" d="M94.21,-506.99C95.91,-482.96 99.04,-438.81 101.07,-410.2"/>
<polygon fill="black" stroke="black" points="104.57,-410.29 101.79,-400.07 97.59,-409.8 104.57,-410.29"/>
</g>
<!-- b -->
<g id="node7" class="node">
<title>b</title>
<ellipse fill="none" stroke="black" cx="231" cy="-253" rx="18" ry="18"/>
<text text-anchor="middle" x="231" y="-249.3" font-family="Times,serif" font-size="14.00">b</text>
</g>
<!-- openSemicircleEast&#45;&gt;b -->
<g id="edge6" class="edge">
<title>openSemicircleEast&#45;&gt;b</title>
<path fill="none" stroke="black" d="M107.11,-363.92C111.69,-347.91 120.42,-324.11 135,-308 154.06,-286.95 183.3,-272.15 204.51,-263.44"/>
<polygon fill="black" stroke="black" points="205.87,-266.66 213.91,-259.75 203.32,-260.14 205.87,-266.66"/>
</g>
<!-- decision7 -->
<g id="node13" class="node">
<title>decision7</title>
<polygon fill="none" stroke="black" points="231,-198 144.7,-180 231,-162 317.3,-180 231,-198"/>
<text text-anchor="start" x="192" y="-177.3" font-family="Times,serif" font-size="14.00">d</text>
<text text-anchor="start" x="202" y="-177.3" font-family="Times,serif" baseline-shift="sub" font-size="14.00">dir</text>
<text text-anchor="start" x="219" y="-177.3" font-family="Times,serif" font-size="14.00"> = 90 °</text>
</g>
<!-- b&#45;&gt;decision7 -->
<g id="edge14" class="edge">
<title>b&#45;&gt;decision7</title>
<path fill="none" stroke="black" d="M231,-234.81C231,-226.79 231,-217.05 231,-208.07"/>
<polygon fill="black" stroke="black" points="234.5,-208.03 231,-198.03 227.5,-208.03 234.5,-208.03"/>
</g>
<!-- closedSemicircleWest -->
<g id="node9" class="node">
<title>closedSemicircleWest</title>
<polygon fill="none" stroke="black" points="340.5,-455 121.5,-455 121.5,-419 340.5,-419 340.5,-455"/>
<text text-anchor="start" x="129.5" y="-433.3" font-family="Times,serif" font-size="14.00">E = [closed semicircle west]</text>
</g>
<!-- decision2&#45;&gt;closedSemicircleWest -->
<g id="edge8" class="edge">
<title>decision2&#45;&gt;closedSemicircleWest</title>
<path fill="none" stroke="black" d="M253.86,-508.23C249.93,-496.13 244.4,-479.15 239.76,-464.92"/>
<polygon fill="black" stroke="black" points="243.01,-463.57 236.58,-455.15 236.35,-465.74 243.01,-463.57"/>
<text text-anchor="middle" x="252" y="-477.8" font-family="Times,serif" font-size="14.00">1</text>
</g>
<!-- rakeED -->
<g id="node10" class="node">
<title>rakeED</title>
<polygon fill="none" stroke="black" points="589.5,-456 358.5,-456 358.5,-418 589.5,-418 589.5,-456"/>
<text text-anchor="start" x="367" y="-440.8" font-family="Times,serif" font-size="14.00">rE = [r1|r2| … |rm] with U(n) </text>
<text text-anchor="start" x="366.5" y="-425.8" font-family="Times,serif" font-size="14.00"> rD = [r1|r2| … |rn] with U(m)</text>
</g>
<!-- decision2&#45;&gt;rakeED -->
<g id="edge9" class="edge">
<title>decision2&#45;&gt;rakeED</title>
<path fill="none" stroke="black" d="M284.93,-513.63C318.06,-500.38 376.24,-477.1 419.34,-459.86"/>
<polygon fill="black" stroke="black" points="420.86,-463.03 428.85,-456.06 418.26,-456.53 420.86,-463.03"/>
<text text-anchor="middle" x="384" y="-477.8" font-family="Times,serif" font-size="14.00">0</text>
</g>
<!-- linePlaneTrace -->
<g id="node11" class="node">
<title>linePlaneTrace</title>
<polygon fill="none" stroke="black" points="318,-345 144,-345 144,-309 318,-309 318,-345"/>
<text text-anchor="start" x="152" y="-323.3" font-family="Times,serif" font-size="14.00">D = [line Plane Trace]</text>
</g>
<!-- closedSemicircleWest&#45;&gt;linePlaneTrace -->
<g id="edge10" class="edge">
<title>closedSemicircleWest&#45;&gt;linePlaneTrace</title>
<path fill="none" stroke="black" d="M231,-418.65C231,-401.56 231,-375.22 231,-355.32"/>
<polygon fill="black" stroke="black" points="234.5,-355.31 231,-345.31 227.5,-355.31 234.5,-355.31"/>
</g>
<!-- ED -->
<g id="node12" class="node">
<title>ED</title>
<polygon fill="none" stroke="black" points="487,-346 377,-346 377,-308 487,-308 487,-346"/>
<text text-anchor="start" x="385" y="-330.8" font-family="Times,serif" font-size="14.00">E = [Eq. 26] </text>
<text text-anchor="start" x="389.5" y="-315.8" font-family="Times,serif" font-size="14.00"> D = [Eq. 9]</text>
</g>
<!-- rakeED&#45;&gt;ED -->
<g id="edge12" class="edge">
<title>rakeED&#45;&gt;ED</title>
<path fill="none" stroke="black" d="M466.88,-417.68C460.26,-400.66 450.32,-375.1 442.74,-355.61"/>
<polygon fill="black" stroke="black" points="445.91,-354.1 439.02,-346.05 439.38,-356.64 445.91,-354.1"/>
</g>
<!-- linePlaneTrace&#45;&gt;b -->
<g id="edge11" class="edge">
<title>linePlaneTrace&#45;&gt;b</title>
<path fill="none" stroke="black" d="M231,-308.94C231,-300.81 231,-290.88 231,-281.7"/>
<polygon fill="black" stroke="black" points="234.5,-281.44 231,-271.44 227.5,-281.44 234.5,-281.44"/>
</g>
<!-- ED&#45;&gt;b -->
<g id="edge13" class="edge">
<title>ED&#45;&gt;b</title>
<path fill="none" stroke="black" d="M381.54,-307.92C342.25,-293.85 289.28,-274.88 257.78,-263.59"/>
<polygon fill="black" stroke="black" points="258.56,-260.15 247.97,-260.08 256.2,-266.74 258.56,-260.15"/>
</g>
<!-- EDhatEquiv -->
<g id="node14" class="node">
<title>EDhatEquiv</title>
<polygon fill="none" stroke="black" points="218.5,-111 153.5,-111 153.5,-73 218.5,-73 218.5,-111"/>
<text text-anchor="start" x="162.5" y="-95.8" font-family="Times,serif" font-size="14.00">E = E </text>
<text text-anchor="start" x="161.5" y="-80.8" font-family="Times,serif" font-size="14.00"> D = D</text>
</g>
<!-- decision7&#45;&gt;EDhatEquiv -->
<g id="edge15" class="edge">
<title>decision7&#45;&gt;EDhatEquiv</title>
<path fill="none" stroke="black" d="M222.95,-163.62C216.65,-151.58 207.72,-134.51 200.22,-120.17"/>
<polygon fill="black" stroke="black" points="203.27,-118.46 195.54,-111.23 197.07,-121.71 203.27,-118.46"/>
<text text-anchor="middle" x="217" y="-132.8" font-family="Times,serif" font-size="14.00">1</text>
</g>
<!-- EDhat -->
<g id="node15" class="node">
<title>EDhat</title>
<polygon fill="none" stroke="black" points="317,-111 237,-111 237,-73 317,-73 317,-111"/>
<text text-anchor="start" x="246" y="-95.8" font-family="Times,serif" font-size="14.00">E = R E </text>
<text text-anchor="start" x="245" y="-80.8" font-family="Times,serif" font-size="14.00"> D = R D</text>
</g>
<!-- decision7&#45;&gt;EDhat -->
<g id="edge16" class="edge">
<title>decision7&#45;&gt;EDhat</title>
<path fill="none" stroke="black" d="M239.22,-163.62C245.67,-151.58 254.8,-134.51 262.47,-120.17"/>
<polygon fill="black" stroke="black" points="265.62,-121.69 267.25,-111.23 259.45,-118.39 265.62,-121.69"/>
<text text-anchor="middle" x="261" y="-132.8" font-family="Times,serif" font-size="14.00">0</text>
</g>
<!-- end -->
<g id="node16" class="node">
<title>end</title>
<ellipse fill="none" stroke="black" cx="231" cy="-18" rx="27.9" ry="18"/>
<text text-anchor="middle" x="231" y="-14.3" font-family="Times,serif" font-size="14.00">end</text>
</g>
<!-- EDhatEquiv&#45;&gt;end -->
<g id="edge17" class="edge">
<title>EDhatEquiv&#45;&gt;end</title>
<path fill="none" stroke="black" d="M197.36,-72.83C202.88,-63.99 209.6,-53.23 215.58,-43.66"/>
<polygon fill="black" stroke="black" points="218.69,-45.29 221.03,-34.96 212.76,-41.58 218.69,-45.29"/>
</g>
<!-- EDhat&#45;&gt;end -->
<g id="edge18" class="edge">
<title>EDhat&#45;&gt;end</title>
<path fill="none" stroke="black" d="M265.39,-72.83C259.74,-63.99 252.87,-53.23 246.76,-43.66"/>
<polygon fill="black" stroke="black" points="249.53,-41.5 241.19,-34.96 243.63,-45.27 249.53,-41.5"/>
</g>
</g>
</svg>
