<?xml version="1.0" encoding="UTF-8" standalone="no"?>
<!DOCTYPE svg PUBLIC "-//W3C//DTD SVG 1.1//EN"
 "http://www.w3.org/Graphics/SVG/1.1/DTD/svg11.dtd">
<!-- Generated by graphviz version 2.43.0 (0)
 -->
<!-- Title: %3 Pages: 1 -->
<svg width="926pt" height="1447pt"
 viewBox="0.00 0.00 925.79 1447.00" xmlns="http://www.w3.org/2000/svg" xmlns:xlink="http://www.w3.org/1999/xlink">
<g id="graph0" class="graph" transform="scale(1 1) rotate(0) translate(4 1443)">
<title>%3</title>
<polygon fill="white" stroke="transparent" points="-4,4 -4,-1443 921.79,-1443 921.79,4 -4,4"/>
<!-- start -->
<g id="node1" class="node">
<title>start</title>
<ellipse fill="none" stroke="black" cx="172" cy="-1421" rx="33.29" ry="18"/>
<text text-anchor="middle" x="172" y="-1417.3" font-family="Times,serif" font-size="14.00">start</text>
</g>
<!-- input -->
<g id="node2" class="node">
<title>input</title>
<polygon fill="none" stroke="black" points="231.16,-1366 137.05,-1366 112.84,-1330 206.95,-1330 231.16,-1366"/>
<text text-anchor="start" x="149" y="-1345.3" font-family="Times,serif" font-size="14.00">d</text>
<text text-anchor="start" x="159" y="-1345.3" font-family="Times,serif" baseline-shift="sub" font-size="14.00">dir</text>
<text text-anchor="start" x="176" y="-1345.3" font-family="Times,serif" font-size="14.00">, d</text>
</g>
<!-- start&#45;&gt;input -->
<g id="edge1" class="edge">
<title>start&#45;&gt;input</title>
<path fill="none" stroke="black" d="M172,-1402.81C172,-1394.79 172,-1385.05 172,-1376.07"/>
<polygon fill="black" stroke="black" points="175.5,-1376.03 172,-1366.03 168.5,-1376.03 175.5,-1376.03"/>
</g>
<!-- inputDefault -->
<g id="node3" class="node">
<title>inputDefault</title>
<polygon fill="none" stroke="black" points="339.91,-1293 72.8,-1293 4.09,-1187 271.2,-1187 339.91,-1293"/>
<text text-anchor="start" x="145.5" y="-1251.3" font-family="Times,serif" font-size="14.00">n ← 36 </text>
<text text-anchor="start" x="133" y="-1236.3" font-family="Times,serif" font-size="14.00"> m ← &#39;gen&#39; </text>
<text text-anchor="start" x="99" y="-1221.3" font-family="Times,serif" font-size="14.00"> genType ← &#39;saltbox&#39;</text>
</g>
<!-- input&#45;&gt;inputDefault -->
<g id="edge2" class="edge">
<title>input&#45;&gt;inputDefault</title>
<path fill="none" stroke="black" d="M172,-1329.97C172,-1322.5 172,-1313.22 172,-1303.51"/>
<polygon fill="black" stroke="black" points="175.5,-1303.28 172,-1293.28 168.5,-1303.28 175.5,-1303.28"/>
</g>
<!-- decision1 -->
<g id="node4" class="node">
<title>decision1</title>
<polygon fill="none" stroke="black" points="172,-1150 102.29,-1132 172,-1114 241.71,-1132 172,-1150"/>
<text text-anchor="start" x="142" y="-1128.3" font-family="Times,serif" font-size="14.00">d = 00 °</text>
</g>
<!-- inputDefault&#45;&gt;decision1 -->
<g id="edge3" class="edge">
<title>inputDefault&#45;&gt;decision1</title>
<path fill="none" stroke="black" d="M172,-1186.93C172,-1177.76 172,-1168.55 172,-1160.4"/>
<polygon fill="black" stroke="black" points="175.5,-1160.39 172,-1150.39 168.5,-1160.39 175.5,-1160.39"/>
</g>
<!-- pointDaylight -->
<g id="node5" class="node">
<title>pointDaylight</title>
<polygon fill="none" stroke="black" points="150,-1063 64,-1063 64,-1027 150,-1027 150,-1063"/>
<text text-anchor="start" x="72" y="-1041.3" font-family="Times,serif" font-size="14.00">E = [0, 0]</text>
</g>
<!-- decision1&#45;&gt;pointDaylight -->
<g id="edge4" class="edge">
<title>decision1&#45;&gt;pointDaylight</title>
<path fill="none" stroke="black" d="M160.97,-1116.58C151.53,-1104.23 137.7,-1086.14 126.4,-1071.38"/>
<polygon fill="black" stroke="black" points="128.95,-1068.95 120.1,-1063.13 123.39,-1073.2 128.95,-1068.95"/>
<text text-anchor="middle" x="149" y="-1084.8" font-family="Times,serif" font-size="14.00">1</text>
</g>
<!-- decision2 -->
<g id="node8" class="node">
<title>decision2</title>
<polygon fill="none" stroke="black" points="241,-1063 171.29,-1045 241,-1027 310.71,-1045 241,-1063"/>
<text text-anchor="start" x="211" y="-1041.3" font-family="Times,serif" font-size="14.00">d = 90 °</text>
</g>
<!-- decision1&#45;&gt;decision2 -->
<g id="edge7" class="edge">
<title>decision1&#45;&gt;decision2</title>
<path fill="none" stroke="black" d="M183.7,-1116.58C194.48,-1103.31 210.61,-1083.44 223.02,-1068.15"/>
<polygon fill="black" stroke="black" points="225.88,-1070.18 229.47,-1060.21 220.45,-1065.76 225.88,-1070.18"/>
<text text-anchor="middle" x="215" y="-1084.8" font-family="Times,serif" font-size="14.00">0</text>
</g>
<!-- openSemicircleEast -->
<g id="node6" class="node">
<title>openSemicircleEast</title>
<polygon fill="none" stroke="black" points="206,-922 0,-922 0,-886 206,-886 206,-922"/>
<text text-anchor="start" x="8" y="-900.3" font-family="Times,serif" font-size="14.00">D = [open semicircle east]</text>
</g>
<!-- pointDaylight&#45;&gt;openSemicircleEast -->
<g id="edge5" class="edge">
<title>pointDaylight&#45;&gt;openSemicircleEast</title>
<path fill="none" stroke="black" d="M106.51,-1026.96C105.83,-1003.4 104.6,-960.64 103.79,-932.53"/>
<polygon fill="black" stroke="black" points="107.28,-932.08 103.49,-922.18 100.28,-932.28 107.28,-932.08"/>
</g>
<!-- b -->
<g id="node7" class="node">
<title>b</title>
<ellipse fill="none" stroke="black" cx="155" cy="-253" rx="18" ry="18"/>
<text text-anchor="middle" x="155" y="-249.3" font-family="Times,serif" font-size="14.00">b</text>
</g>
<!-- openSemicircleEast&#45;&gt;b -->
<g id="edge6" class="edge">
<title>openSemicircleEast&#45;&gt;b</title>
<path fill="none" stroke="black" d="M103,-885.74C103,-864.76 103,-828.28 103,-797 103,-797 103,-797 103,-326 103,-304.14 118.94,-284.42 133.17,-271.16"/>
<polygon fill="black" stroke="black" points="135.57,-273.71 140.79,-264.49 130.96,-268.45 135.57,-273.71"/>
</g>
<!-- decision7 -->
<g id="node24" class="node">
<title>decision7</title>
<polygon fill="none" stroke="black" points="157,-198 70.7,-180 157,-162 243.3,-180 157,-198"/>
<text text-anchor="start" x="118" y="-177.3" font-family="Times,serif" font-size="14.00">d</text>
<text text-anchor="start" x="128" y="-177.3" font-family="Times,serif" baseline-shift="sub" font-size="14.00">dir</text>
<text text-anchor="start" x="145" y="-177.3" font-family="Times,serif" font-size="14.00"> = 90 °</text>
</g>
<!-- b&#45;&gt;decision7 -->
<g id="edge27" class="edge">
<title>b&#45;&gt;decision7</title>
<path fill="none" stroke="black" d="M155.48,-234.81C155.71,-226.79 155.98,-217.05 156.24,-208.07"/>
<polygon fill="black" stroke="black" points="159.74,-208.12 156.52,-198.03 152.74,-207.93 159.74,-208.12"/>
</g>
<!-- closedSemicircleWest -->
<g id="node9" class="node">
<title>closedSemicircleWest</title>
<polygon fill="none" stroke="black" points="350.5,-976 131.5,-976 131.5,-940 350.5,-940 350.5,-976"/>
<text text-anchor="start" x="139.5" y="-954.3" font-family="Times,serif" font-size="14.00">E = [closed semicircle west]</text>
</g>
<!-- decision2&#45;&gt;closedSemicircleWest -->
<g id="edge8" class="edge">
<title>decision2&#45;&gt;closedSemicircleWest</title>
<path fill="none" stroke="black" d="M241,-1026.8C241,-1015.16 241,-999.55 241,-986.24"/>
<polygon fill="black" stroke="black" points="244.5,-986.18 241,-976.18 237.5,-986.18 244.5,-986.18"/>
<text text-anchor="middle" x="246" y="-997.8" font-family="Times,serif" font-size="14.00">1</text>
</g>
<!-- decision3 -->
<g id="node10" class="node">
<title>decision3</title>
<polygon fill="none" stroke="black" points="473,-976 394.74,-958 473,-940 551.26,-958 473,-976"/>
<text text-anchor="start" x="438.5" y="-954.3" font-family="Times,serif" font-size="14.00">m = &#39;gen&#39;</text>
</g>
<!-- decision2&#45;&gt;decision3 -->
<g id="edge9" class="edge">
<title>decision2&#45;&gt;decision3</title>
<path fill="none" stroke="black" d="M268.52,-1033.92C309.87,-1018.77 388.15,-990.09 434.94,-972.94"/>
<polygon fill="black" stroke="black" points="436.24,-976.2 444.42,-969.47 433.83,-969.62 436.24,-976.2"/>
<text text-anchor="middle" x="375" y="-997.8" font-family="Times,serif" font-size="14.00">0</text>
</g>
<!-- linePlaneTrace -->
<g id="node11" class="node">
<title>linePlaneTrace</title>
<polygon fill="none" stroke="black" points="245.5,-814 118.5,-814 118.5,-778 245.5,-778 245.5,-814"/>
<text text-anchor="start" x="126.5" y="-792.3" font-family="Times,serif" font-size="14.00">D = [0, &#45;1; 0, 1]</text>
</g>
<!-- closedSemicircleWest&#45;&gt;linePlaneTrace -->
<g id="edge10" class="edge">
<title>closedSemicircleWest&#45;&gt;linePlaneTrace</title>
<path fill="none" stroke="black" d="M234.71,-939.78C229.46,-925.39 221.76,-904.35 215,-886 207.28,-865.06 198.5,-841.37 191.93,-823.7"/>
<polygon fill="black" stroke="black" points="195.11,-822.21 188.35,-814.05 188.55,-824.65 195.11,-822.21"/>
</g>
<!-- decision5 -->
<g id="node12" class="node">
<title>decision5</title>
<polygon fill="none" stroke="black" points="473,-868 309.28,-850 473,-832 636.72,-850 473,-868"/>
<text text-anchor="start" x="392" y="-846.3" font-family="Times,serif" font-size="14.00">genType = &#39;triangular&#39;</text>
</g>
<!-- decision3&#45;&gt;decision5 -->
<g id="edge12" class="edge">
<title>decision3&#45;&gt;decision5</title>
<path fill="none" stroke="black" d="M473,-939.97C473,-923.38 473,-897.88 473,-878.43"/>
<polygon fill="black" stroke="black" points="476.5,-878.34 473,-868.34 469.5,-878.34 476.5,-878.34"/>
<text text-anchor="middle" x="478" y="-900.3" font-family="Times,serif" font-size="14.00">1</text>
</g>
<!-- decision4 -->
<g id="node13" class="node">
<title>decision4</title>
<polygon fill="none" stroke="black" points="792,-760 669.5,-742 792,-724 914.5,-742 792,-760"/>
<text text-anchor="start" x="733.5" y="-738.3" font-family="Times,serif" font-size="14.00">m is int_number</text>
</g>
<!-- decision3&#45;&gt;decision4 -->
<g id="edge13" class="edge">
<title>decision3&#45;&gt;decision4</title>
<path fill="none" stroke="black" d="M498.97,-945.94C533.75,-930.62 596.8,-901.06 646,-868 693.09,-836.36 742.03,-791.61 769.59,-765.12"/>
<polygon fill="black" stroke="black" points="772.03,-767.63 776.78,-758.16 767.16,-762.61 772.03,-767.63"/>
<text text-anchor="middle" x="698" y="-846.3" font-family="Times,serif" font-size="14.00">0</text>
</g>
<!-- linePlaneTrace&#45;&gt;b -->
<g id="edge11" class="edge">
<title>linePlaneTrace&#45;&gt;b</title>
<path fill="none" stroke="black" d="M172.1,-777.67C162.38,-758.99 149,-728.09 149,-699.5 149,-699.5 149,-699.5 149,-326 149,-311.15 150.28,-294.64 151.66,-281.18"/>
<polygon fill="black" stroke="black" points="155.15,-281.46 152.77,-271.13 148.19,-280.69 155.15,-281.46"/>
</g>
<!-- rndTriangular -->
<g id="node18" class="node">
<title>rndTriangular</title>
<polygon fill="none" stroke="black" points="343.5,-760 176.5,-760 176.5,-724 343.5,-724 343.5,-760"/>
<text text-anchor="start" x="184.5" y="-738.3" font-family="Times,serif" font-size="14.00">F^{&#45;1} ← T[0,90,c,n]</text>
</g>
<!-- decision5&#45;&gt;rndTriangular -->
<g id="edge18" class="edge">
<title>decision5&#45;&gt;rndTriangular</title>
<path fill="none" stroke="black" d="M444.72,-834.92C408.63,-816.97 345.84,-785.72 303.61,-764.7"/>
<polygon fill="black" stroke="black" points="304.91,-761.44 294.4,-760.12 301.8,-767.71 304.91,-761.44"/>
<text text-anchor="middle" x="403" y="-792.3" font-family="Times,serif" font-size="14.00">1</text>
</g>
<!-- decision6 -->
<g id="node19" class="node">
<title>decision6</title>
<polygon fill="none" stroke="black" points="507,-760 361.55,-742 507,-724 652.45,-742 507,-760"/>
<text text-anchor="start" x="436" y="-738.3" font-family="Times,serif" font-size="14.00">genType = &#39;saltbox&#39;</text>
</g>
<!-- decision5&#45;&gt;decision6 -->
<g id="edge19" class="edge">
<title>decision5&#45;&gt;decision6</title>
<path fill="none" stroke="black" d="M478.31,-832.44C483.75,-815.48 492.29,-788.88 498.63,-769.09"/>
<polygon fill="black" stroke="black" points="502,-770.04 501.72,-759.45 495.34,-767.9 502,-770.04"/>
<text text-anchor="middle" x="500" y="-792.3" font-family="Times,serif" font-size="14.00">0</text>
</g>
<!-- rndUniform -->
<g id="node14" class="node">
<title>rndUniform</title>
<polygon fill="none" stroke="black" points="766,-673 608,-673 608,-637 766,-637 766,-673"/>
<text text-anchor="start" x="616" y="-651.3" font-family="Times,serif" font-size="14.00">F^{&#45;1} ← U[0,90,n]</text>
</g>
<!-- decision4&#45;&gt;rndUniform -->
<g id="edge14" class="edge">
<title>decision4&#45;&gt;rndUniform</title>
<path fill="none" stroke="black" d="M774.19,-726.58C758.29,-713.71 734.7,-694.61 716.07,-679.53"/>
<polygon fill="black" stroke="black" points="718.14,-676.7 708.16,-673.13 713.73,-682.14 718.14,-676.7"/>
<text text-anchor="middle" x="750" y="-694.8" font-family="Times,serif" font-size="14.00">1</text>
</g>
<!-- error -->
<g id="node15" class="node">
<title>error</title>
<ellipse fill="none" stroke="black" cx="780" cy="-601" rx="137.58" ry="18"/>
<text text-anchor="start" x="682" y="-597.3" font-family="Times,serif" font-size="14.00">Error: wrong number type!</text>
</g>
<!-- decision4&#45;&gt;error -->
<g id="edge15" class="edge">
<title>decision4&#45;&gt;error</title>
<path fill="none" stroke="black" d="M790.53,-723.96C788.49,-700.3 784.77,-657.26 782.34,-629.15"/>
<polygon fill="black" stroke="black" points="785.83,-628.85 781.48,-619.18 778.86,-629.45 785.83,-628.85"/>
<text text-anchor="middle" x="793" y="-694.8" font-family="Times,serif" font-size="14.00">0</text>
</g>
<!-- a -->
<g id="node17" class="node">
<title>a</title>
<ellipse fill="none" stroke="black" cx="439" cy="-547" rx="18" ry="18"/>
<text text-anchor="middle" x="439" y="-543.3" font-family="Times,serif" font-size="14.00">a</text>
</g>
<!-- rndUniform&#45;&gt;a -->
<g id="edge17" class="edge">
<title>rndUniform&#45;&gt;a</title>
<path fill="none" stroke="black" d="M647.15,-636.97C595.71,-614.98 507.67,-577.35 464.45,-558.88"/>
<polygon fill="black" stroke="black" points="465.78,-555.64 455.21,-554.93 463.03,-562.08 465.78,-555.64"/>
</g>
<!-- fin -->
<g id="node16" class="node">
<title>fin</title>
<ellipse fill="none" stroke="black" cx="248" cy="-18" rx="27" ry="18"/>
<text text-anchor="middle" x="248" y="-14.3" font-family="Times,serif" font-size="14.00">fin</text>
</g>
<!-- error&#45;&gt;fin -->
<g id="edge16" class="edge">
<title>error&#45;&gt;fin</title>
<path fill="none" stroke="black" d="M687.91,-587.61C609,-574.33 508,-549.75 508,-511 508,-511 508,-511 508,-91 508,-45.24 356.54,-27.39 284.82,-21.5"/>
<polygon fill="black" stroke="black" points="285.09,-18.01 274.85,-20.72 284.54,-24.99 285.09,-18.01"/>
</g>
<!-- rakeE -->
<g id="node21" class="node">
<title>rakeE</title>
<polygon fill="none" stroke="black" points="467.5,-492 200.5,-492 200.5,-456 467.5,-456 467.5,-492"/>
<text text-anchor="start" x="208.5" y="-470.3" font-family="Times,serif" font-size="14.00">rE = [r1|r2| … |rm] with F^{&#45;1}(n)</text>
</g>
<!-- a&#45;&gt;rakeE -->
<g id="edge24" class="edge">
<title>a&#45;&gt;rakeE</title>
<path fill="none" stroke="black" d="M424.4,-536.13C409.84,-526.28 386.95,-510.8 367.84,-497.88"/>
<polygon fill="black" stroke="black" points="369.62,-494.86 359.38,-492.16 365.7,-500.66 369.62,-494.86"/>
</g>
<!-- decision6&#45;&gt;a -->
<g id="edge21" class="edge">
<title>decision6&#45;&gt;a</title>
<path fill="none" stroke="black" d="M465.6,-729.09C438.58,-718.93 405.39,-701.35 389,-673 368.84,-638.12 398.49,-593.55 420.02,-568.15"/>
<polygon fill="black" stroke="black" points="422.67,-570.43 426.65,-560.61 417.41,-565.8 422.67,-570.43"/>
<text text-anchor="middle" x="394" y="-651.3" font-family="Times,serif" font-size="14.00">0</text>
</g>
<!-- rndSaltbox -->
<g id="node20" class="node">
<title>rndSaltbox</title>
<polygon fill="none" stroke="black" points="590,-673 408,-673 408,-637 590,-637 590,-673"/>
<text text-anchor="start" x="416" y="-651.3" font-family="Times,serif" font-size="14.00">F^{&#45;1} ← S[0,90,c,p,n]</text>
</g>
<!-- decision6&#45;&gt;rndSaltbox -->
<g id="edge20" class="edge">
<title>decision6&#45;&gt;rndSaltbox</title>
<path fill="none" stroke="black" d="M505.38,-723.8C504.29,-712.16 502.82,-696.55 501.56,-683.24"/>
<polygon fill="black" stroke="black" points="505.04,-682.8 500.62,-673.18 498.07,-683.46 505.04,-682.8"/>
<text text-anchor="middle" x="508" y="-694.8" font-family="Times,serif" font-size="14.00">1</text>
</g>
<!-- rndSaltbox&#45;&gt;a -->
<g id="edge22" class="edge">
<title>rndSaltbox&#45;&gt;a</title>
<path fill="none" stroke="black" d="M489.36,-636.97C479.35,-619.29 463.62,-591.49 452.4,-571.67"/>
<polygon fill="black" stroke="black" points="455.42,-569.91 447.45,-562.93 449.33,-573.36 455.42,-569.91"/>
</g>
<!-- rakeD -->
<g id="node22" class="node">
<title>rakeD</title>
<polygon fill="none" stroke="black" points="412,-419 190,-419 190,-383 412,-383 412,-419"/>
<text text-anchor="start" x="198" y="-397.3" font-family="Times,serif" font-size="14.00">rD = [r1|r2| … |rn] with U(n)</text>
</g>
<!-- rakeE&#45;&gt;rakeD -->
<g id="edge23" class="edge">
<title>rakeE&#45;&gt;rakeD</title>
<path fill="none" stroke="black" d="M326.01,-455.81C322.16,-447.53 317.46,-437.41 313.17,-428.19"/>
<polygon fill="black" stroke="black" points="316.3,-426.62 308.91,-419.03 309.96,-429.57 316.3,-426.62"/>
</g>
<!-- ED -->
<g id="node23" class="node">
<title>ED</title>
<polygon fill="none" stroke="black" points="312,-346 202,-346 202,-308 312,-308 312,-346"/>
<text text-anchor="start" x="210" y="-330.8" font-family="Times,serif" font-size="14.00">E = [Eq. 26] </text>
<text text-anchor="start" x="214.5" y="-315.8" font-family="Times,serif" font-size="14.00"> D = [Eq. 9]</text>
</g>
<!-- rakeD&#45;&gt;ED -->
<g id="edge25" class="edge">
<title>rakeD&#45;&gt;ED</title>
<path fill="none" stroke="black" d="M290.57,-382.94C285.45,-374.55 279.16,-364.26 273.41,-354.85"/>
<polygon fill="black" stroke="black" points="276.32,-352.91 268.12,-346.2 270.35,-356.56 276.32,-352.91"/>
</g>
<!-- ED&#45;&gt;b -->
<g id="edge26" class="edge">
<title>ED&#45;&gt;b</title>
<path fill="none" stroke="black" d="M231.26,-307.83C214.73,-296.16 193.46,-281.15 177.58,-269.94"/>
<polygon fill="black" stroke="black" points="179.57,-267.06 169.38,-264.15 175.54,-272.78 179.57,-267.06"/>
</g>
<!-- EDhatEquiv -->
<g id="node25" class="node">
<title>EDhatEquiv</title>
<polygon fill="none" stroke="black" points="189.5,-111 124.5,-111 124.5,-73 189.5,-73 189.5,-111"/>
<text text-anchor="start" x="133.5" y="-95.8" font-family="Times,serif" font-size="14.00">E = E </text>
<text text-anchor="start" x="132.5" y="-80.8" font-family="Times,serif" font-size="14.00"> D = D</text>
</g>
<!-- decision7&#45;&gt;EDhatEquiv -->
<g id="edge28" class="edge">
<title>decision7&#45;&gt;EDhatEquiv</title>
<path fill="none" stroke="black" d="M157,-161.6C157,-150.06 157,-134.65 157,-121.36"/>
<polygon fill="black" stroke="black" points="160.5,-121.27 157,-111.27 153.5,-121.27 160.5,-121.27"/>
<text text-anchor="middle" x="162" y="-132.8" font-family="Times,serif" font-size="14.00">1</text>
</g>
<!-- EDhat -->
<g id="node26" class="node">
<title>EDhat</title>
<polygon fill="none" stroke="black" points="288,-111 208,-111 208,-73 288,-73 288,-111"/>
<text text-anchor="start" x="217" y="-95.8" font-family="Times,serif" font-size="14.00">E = R E </text>
<text text-anchor="start" x="216" y="-80.8" font-family="Times,serif" font-size="14.00"> D = R D</text>
</g>
<!-- decision7&#45;&gt;EDhat -->
<g id="edge29" class="edge">
<title>decision7&#45;&gt;EDhat</title>
<path fill="none" stroke="black" d="M172.03,-164.8C185.39,-152.17 205.24,-133.41 221.3,-118.23"/>
<polygon fill="black" stroke="black" points="223.97,-120.53 228.83,-111.11 219.16,-115.44 223.97,-120.53"/>
<text text-anchor="middle" x="213" y="-132.8" font-family="Times,serif" font-size="14.00">0</text>
</g>
<!-- EDhatEquiv&#45;&gt;fin -->
<g id="edge30" class="edge">
<title>EDhatEquiv&#45;&gt;fin</title>
<path fill="none" stroke="black" d="M179.96,-72.83C193.13,-62.41 209.67,-49.33 223.14,-38.67"/>
<polygon fill="black" stroke="black" points="225.41,-41.34 231.08,-32.39 221.06,-35.85 225.41,-41.34"/>
</g>
<!-- EDhat&#45;&gt;fin -->
<g id="edge31" class="edge">
<title>EDhat&#45;&gt;fin</title>
<path fill="none" stroke="black" d="M248,-72.83C248,-64.89 248,-55.41 248,-46.63"/>
<polygon fill="black" stroke="black" points="251.5,-46.42 248,-36.42 244.5,-46.42 251.5,-46.42"/>
</g>
</g>
</svg>
