<?xml version='1.0' encoding='UTF-8' standalone='no'?>
<svg width="576pt" xmlns:xlink="http://www.w3.org/1999/xlink" viewBox="0 0 576 432" xmlns="http://www.w3.org/2000/svg" height="432pt">
 <title>gl2ps_renderer figure</title>
 <desc>
Creator: GL2PS 1.4.0, (C) 1999-2017 C. Geuzaine
For: Octave
CreationDate: Tue Mar 29 07:29:21 2022
</desc>
 <defs/>
 <polygon fill="#ffffff" points="0,0 576,0 576,432 0,432"/>
 <g>
  <polygon shape-rendering="crispEdges" fill="#ffffff" points="0,432 576,432 576,0 0,0"/>
  <clipPath id="cp00576432">
   <polygon points="0,432 576,432 576,0 0,0"/>
  </clipPath>
  <g clip-path="url(#cp00576432)">
   <polyline stroke-linecap="butt" stroke-width="0.5" stroke-linejoin="round" fill="none" points="297.734,40.9915 297.734,32.4" stroke="#000000"/>
   <text font-family="FreeSans" xml:space="preserve" transform="translate(294.234,32.4) rotate(-0,3.5,0)" font-size="10" font-style="normal" font-weight="normal">
    <tspan x="0 " y="-0" fill="rgb(0,0,0)">N</tspan>
   </text>
   <polyline stroke-linecap="butt" stroke-width="0.5" stroke-linejoin="round" fill="none" points="469.565,212.822 466.803,182.141 458.608,152.445 445.242,124.69 427.135,99.7682 404.869,78.4796 379.159,61.5089 350.833,49.4015 320.8,42.5466 290.025,41.1646 259.498,45.2997 230.2,54.8192 203.073,69.4169 178.988,88.6239 158.72,111.823 142.92,138.268 132.096,167.109 126.595,197.419 126.595,228.225 132.096,258.536 142.92,287.377 158.72,313.822 178.988,337.021 203.073,356.228 230.2,370.825 259.498,380.345 290.025,384.48 320.8,383.098 350.833,376.243 379.159,364.136 404.869,347.165 427.135,325.876 445.242,300.954 458.608,273.199 466.803,243.504 469.565,212.822" stroke="#000000"/>
   <polyline stroke-linecap="square" stroke-width="0.5" stroke-linejoin="miter" fill="none" points="294.734,212.822 300.734,212.822" stroke="#000000"/>
   <polyline stroke-linecap="square" stroke-width="0.5" stroke-linejoin="miter" fill="none" points="297.734,209.822 297.734,215.822" stroke="#000000"/>
   <polyline stroke-linecap="butt" stroke-width="0.5" stroke-linejoin="round" fill="none" points="297.734,212.822 292.687,233.32 289.705,241.708 287,248.099 284.399,253.447 281.832,258.116 279.261,262.289 276.661,266.072 274.012,269.531 271.301,272.708 268.514,275.63 265.639,278.314 262.666,280.77 259.583,283.001 256.381,285.005 253.049,286.776 249.578,288.302 245.959,289.568 242.182,290.555 238.241,291.237 234.129,291.586 229.842,291.567 225.381,291.139 220.75,290.256 216.11,288.92 211.575,287.163 207.138,284.992 202.804,282.41 198.586,279.417 194.502,276.016 190.575,272.21 186.832,268.004 183.303,263.41 180.023,258.445 177.025,253.13 174.341,247.495 172.004,241.575 170.041,235.413 168.477,229.057 167.328,222.559 166.603,215.976 166.307,209.365 166.432,202.784 166.966,196.287 167.887,189.927 167.887,189.927 169.197,183.635 170.917,177.348 173.05,171.12 175.59,165.01 178.522,159.071 181.824,153.358 185.469,147.921 189.42,142.801 193.641,138.038 198.09,133.66 202.726,129.692 207.507,126.147 212.393,123.037 217.349,120.366 222.341,118.132 227.343,116.333 232.33,114.963 237.285,114.019 242.197,113.497 247.06,113.397 251.876,113.728 256.53,114.483 260.869,115.606 264.903,117.054 268.648,118.788 272.118,120.778 275.33,122.997 278.298,125.425 281.038,128.046 283.563,130.849 285.886,133.828 288.02,136.978 289.974,140.303 291.758,143.809 293.377,147.508 294.838,151.42 296.144,155.576 297.294,160.02 298.283,164.821 299.098,170.086 299.713,176.001 300.069,182.933 300.002,191.835 297.734,212.822" stroke="#ff0000"/>
   <polyline stroke-linecap="butt" stroke-width="0.5" stroke-linejoin="round" fill="none" points="327.572,43.6021 328.697,58.3505 329.444,71.9901 329.886,84.683 330.08,96.5642 330.069,107.748 329.884,118.33 329.552,128.394 329.092,138.012 328.518,147.246 327.842,156.151 327.073,164.776 326.215,173.166 325.274,181.36 324.25,189.396 323.144,197.307 321.956,205.126 320.682,212.885 319.32,220.612 317.863,228.338 316.305,236.093 314.638,243.905 312.852,251.806 310.934,259.828 308.871,268.005 306.644,276.374 304.233,284.973 301.614,293.846 298.757,303.041 295.627,312.612 292.181,322.619 288.367,333.132 284.121,344.231 279.364,356.007 273.997,368.568 267.896,382.043" stroke="#0000ff"/>
  </g>
 </g>
</svg>
