<?xml version='1.0' encoding='UTF-8' standalone='no'?>
<svg xmlns:xlink="http://www.w3.org/1999/xlink" viewBox="0 0 576 432" xmlns="http://www.w3.org/2000/svg" height="432pt" width="576pt">
 <title>gl2ps_renderer figure</title>
 <desc>
Creator: GL2PS 1.4.0, (C) 1999-2017 C. Geuzaine
For: Octave
CreationDate: Fri Mar 18 16:26:27 2022
</desc>
 <defs/>
 <polygon points="0,0 576,0 576,432 0,432" fill="#ffffff"/>
 <g>
  <polygon points="0,432 576,432 576,0 0,0" fill="#ffffff" shape-rendering="crispEdges"/>
  <clipPath id="cp00576432">
   <polygon points="0,432 576,432 576,0 0,0"/>
  </clipPath>
  <g clip-path="url(#cp00576432)">
   <polyline points="297.734,40.9915 297.734,32.4" stroke-width="0.5" stroke-linecap="butt" stroke="#000000" stroke-linejoin="round" fill="none"/>
   <text xml:space="preserve" font-size="10" font-style="normal" font-family="FreeSans" transform="translate(294.234,32.4) rotate(-0,3.5,0)" font-weight="normal">
    <tspan x="0 " y="-0" fill="rgb(0,0,0)">N</tspan>
   </text>
   <polyline points="469.565,212.822 466.803,182.141 458.608,152.445 445.242,124.69 427.135,99.7682 404.869,78.4796 379.159,61.5089 350.833,49.4015 320.8,42.5466 290.025,41.1646 259.498,45.2997 230.2,54.8192 203.073,69.4169 178.988,88.6239 158.72,111.823 142.92,138.268 132.096,167.109 126.595,197.419 126.595,228.225 132.096,258.536 142.92,287.377 158.72,313.822 178.988,337.021 203.073,356.228 230.2,370.825 259.498,380.345 290.025,384.48 320.8,383.098 350.833,376.243 379.159,364.136 404.869,347.165 427.135,325.876 445.242,300.954 458.608,273.199 466.803,243.504 469.565,212.822" stroke-width="0.5" stroke-linecap="butt" stroke="#000000" stroke-linejoin="round" fill="none"/>
   <polyline points="294.734,212.822 300.734,212.822" stroke-width="0.5" stroke-linecap="square" stroke="#000000" stroke-linejoin="miter" fill="none"/>
   <polyline points="297.734,209.822 297.734,215.822" stroke-width="0.5" stroke-linecap="square" stroke="#000000" stroke-linejoin="miter" fill="none"/>
   <polyline points="297.734,212.822 308.679,227.969 312.517,234.669 315.153,239.959 317.15,244.511 318.729,248.587 320.001,252.32 321.033,255.792 321.868,259.054 322.538,262.143 323.063,265.084 323.46,267.899 323.742,270.601 323.919,273.204 323.998,275.716 323.987,278.147 323.889,280.502 323.711,282.787 323.455,285.007 323.125,287.165 322.722,289.264 322.25,291.308 321.711,293.298 321.105,295.237 320.434,297.125 319.699,298.965 318.902,300.757 318.042,302.502 317.122,304.201 316.141,305.853 315.095,307.466 313.975,309.053 312.779,310.611 311.504,312.139 310.149,313.634 308.712,315.093 307.191,316.513 305.584,317.892 303.891,319.226 302.108,320.511 300.236,321.743 298.272,322.919 296.216,324.035 294.065,325.084 291.82,326.064 289.481,326.968 287.046,327.792 284.516,328.529 281.891,329.175 279.173,329.722 276.364,330.165 273.464,330.497 270.477,330.712 267.407,330.803 264.256,330.765 261.032,330.589 257.738,330.271 254.381,329.804 250.969,329.183 247.511,328.402 244.015,327.457 240.491,326.344 236.95,325.06 233.404,323.603 229.865,321.972 226.345,320.167 222.858,318.189 219.416,316.041 216.035,313.727 212.726,311.253 209.503,308.625 206.379,305.85 203.365,302.939 200.474,299.902 197.714,296.749 197.714,296.749 195.089,293.484 192.599,290.109 190.256,286.636 188.066,283.077 186.037,279.447 184.175,275.759 182.484,272.026 180.966,268.265 179.624,264.487 178.457,260.707 177.465,256.938 176.646,253.193 175.997,249.483 175.513,245.82 175.189,242.212 175.021,238.671 175.001,235.203 175.124,231.816 175.383,228.517 175.77,225.311 176.279,222.202 176.902,219.194 177.633,216.29 178.464,213.492 179.388,210.802 180.398,208.22 181.49,205.748 182.655,203.384 183.889,201.129 185.186,198.982 186.54,196.941 187.948,195.006 189.403,193.174 190.902,191.444 192.441,189.815 194.016,188.283 195.624,186.846 197.26,185.504 198.924,184.253 200.61,183.091 202.317,182.016 204.044,181.025 205.786,180.117 207.543,179.29 209.313,178.541 211.111,177.861 212.943,177.25 214.811,176.707 216.714,176.232 218.654,175.828 220.63,175.496 222.644,175.236 224.698,175.05 226.793,174.94 228.93,174.908 231.113,174.957 233.343,175.091 235.624,175.312 237.961,175.625 240.356,176.036 242.817,176.55 245.349,177.176 247.962,177.923 250.664,178.803 253.47,179.831 256.395,181.027 259.463,182.416 262.703,184.035 266.159,185.936 269.898,188.198 274.034,190.956 278.786,194.47 284.718,199.414 297.734,212.822" stroke-width="0.5" stroke-linecap="butt" stroke="#ff0000" stroke-linejoin="round" fill="none"/>
   <polyline points="187.283,81.1923 196.737,82.7196 206.126,84.933 215.448,87.7791 224.7,91.2115 233.875,95.19 242.968,99.6783 251.969,104.644 260.869,110.057 269.658,115.89 278.323,122.116 286.853,128.711 295.234,135.652 303.452,142.915 311.494,150.479 319.343,158.322 326.985,166.423 334.404,174.762 341.584,183.318 348.508,192.073 355.159,201.006 361.52,210.098 367.572,219.33 373.298,228.685 378.678,238.144 383.692,247.689 388.319,257.304 392.537,266.972 396.322,276.677 399.649,286.404 402.49,296.138 404.815,305.865 406.589,315.572 407.773,325.246 408.322,334.877 408.185,344.452" stroke-width="0.5" stroke-linecap="butt" stroke="#0000ff" stroke-linejoin="round" fill="none"/>
  </g>
 </g>
</svg>
