<?xml version='1.0' encoding='UTF-8' standalone='no'?>
<svg xmlns:xlink="http://www.w3.org/1999/xlink" height="432pt" width="576pt" viewBox="0 0 576 432" xmlns="http://www.w3.org/2000/svg">
 <title>gl2ps_renderer figure</title>
 <desc>
Creator: GL2PS 1.4.0, (C) 1999-2017 C. Geuzaine
For: Octave
CreationDate: Fri Mar 18 16:32:18 2022
</desc>
 <defs/>
 <polygon points="0,0 576,0 576,432 0,432" fill="#ffffff"/>
 <g>
  <polygon points="0,432 576,432 576,0 0,0" shape-rendering="crispEdges" fill="#ffffff"/>
  <clipPath id="cp00576432">
   <polygon points="0,432 576,432 576,0 0,0"/>
  </clipPath>
  <g clip-path="url(#cp00576432)">
   <polyline points="297.734,40.9915 297.734,32.4" stroke-linecap="butt" fill="none" stroke-linejoin="round" stroke="#000000" stroke-width="0.5"/>
   <text xml:space="preserve" font-size="10" font-style="normal" font-family="FreeSans" font-weight="normal" transform="translate(294.234,32.4) rotate(-0,3.5,0)">
    <tspan x="0 " fill="rgb(0,0,0)" y="-0">N</tspan>
   </text>
   <polyline points="469.565,212.822 466.803,182.141 458.608,152.445 445.242,124.69 427.135,99.7682 404.869,78.4796 379.159,61.5089 350.833,49.4015 320.8,42.5466 290.025,41.1646 259.498,45.2997 230.2,54.8192 203.073,69.4169 178.988,88.6239 158.72,111.823 142.92,138.268 132.096,167.109 126.595,197.419 126.595,228.225 132.096,258.536 142.92,287.377 158.72,313.822 178.988,337.021 203.073,356.228 230.2,370.825 259.498,380.345 290.025,384.48 320.8,383.098 350.833,376.243 379.159,364.136 404.869,347.165 427.135,325.876 445.242,300.954 458.608,273.199 466.803,243.504 469.565,212.822" stroke-linecap="butt" fill="none" stroke-linejoin="round" stroke="#000000" stroke-width="0.5"/>
   <polyline points="294.734,212.822 300.734,212.822" stroke-linecap="square" fill="none" stroke-linejoin="miter" stroke="#000000" stroke-width="0.5"/>
   <polyline points="297.734,209.822 297.734,215.822" stroke-linecap="square" fill="none" stroke-linejoin="miter" stroke="#000000" stroke-width="0.5"/>
   <polyline points="297.734,212.822 295.285,224.804 294.081,229.718 293.08,233.464 292.185,236.603 291.356,239.353 290.575,241.827 289.828,244.089 289.109,246.184 288.413,248.142 287.734,249.984 287.071,251.727 286.421,253.384 285.783,254.965 285.154,256.479 284.534,257.932 283.921,259.33 283.315,260.678 282.715,261.98 282.121,263.24 281.53,264.46 280.944,265.644 280.362,266.794 279.783,267.911 279.207,268.998 278.634,270.057 278.063,271.089 277.494,272.095 276.927,273.077 276.362,274.036 275.798,274.973 275.235,275.888 274.673,276.783 274.112,277.659 273.551,278.515 272.991,279.354 272.432,280.175 271.872,280.979 271.313,281.767 270.754,282.539 270.195,283.296 269.635,284.037 269.075,284.765 268.515,285.478 267.954,286.177 267.392,286.863 266.83,287.535 266.267,288.195 265.703,288.842 265.138,289.477 264.572,290.1 264.005,290.711 263.437,291.31 262.867,291.898 262.296,292.474 261.723,293.04 261.149,293.594 260.574,294.138 259.997,294.671 259.418,295.194 258.837,295.706 258.254,296.209 257.67,296.701 257.084,297.183 256.495,297.655 255.905,298.117 255.312,298.569 254.717,299.012 254.12,299.445 253.521,299.868 252.919,300.282 252.315,300.687 251.708,301.082 251.099,301.467 250.487,301.844 249.873,302.211 249.256,302.568 248.636,302.917 248.013,303.256 247.388,303.585 246.759,303.906 246.128,304.217 245.494,304.519 244.856,304.812 244.216,305.095 243.572,305.369 242.925,305.633 242.275,305.889 241.621,306.134 240.964,306.371 240.304,306.598 239.64,306.815 238.973,307.023 238.302,307.221 237.628,307.409 236.95,307.588 236.268,307.756 235.582,307.915 234.893,308.064 234.2,308.203 233.503,308.332 232.802,308.45 232.098,308.558 231.389,308.656 230.676,308.743 229.959,308.82 229.239,308.886 228.514,308.941 227.785,308.985 227.051,309.018 226.314,309.04 225.572,309.051 224.826,309.05 224.076,309.037 223.322,309.013 222.564,308.977 221.804,308.929 221.042,308.869 220.277,308.797 219.51,308.713 218.74,308.617 217.968,308.509 217.193,308.388 216.415,308.255 215.635,308.109 214.853,307.951 214.068,307.78 213.28,307.596 212.49,307.399 211.697,307.189 210.902,306.965 210.105,306.729 209.305,306.479 208.503,306.215 207.698,305.937 206.891,305.646 206.082,305.34 205.271,305.021 204.457,304.687 203.642,304.338 202.824,303.975 202.005,303.597 201.184,303.204 200.361,302.796 199.536,302.373 198.71,301.934 197.882,301.479 197.053,301.009 196.223,300.523 195.392,300.021 194.559,299.502 193.726,298.967 192.892,298.415 192.058,297.847 191.223,297.261 190.388,296.658 189.553,296.038 188.718,295.401 187.884,294.746 187.05,294.073 186.217,293.382 185.384,292.672 184.553,291.945 183.724,291.199 182.896,290.434 182.07,289.651 181.246,288.849 180.425,288.028 179.607,287.187 178.791,286.327 177.979,285.448 177.171,284.55 176.366,283.631 175.566,282.693 174.771,281.735 173.98,280.757 173.195,279.76 172.416,278.742 171.643,277.704 170.876,276.646 170.117,275.568 169.364,274.47 168.619,273.352 167.883,272.213 167.155,271.055 166.436,269.876 165.726,268.678 165.026,267.46 164.337,266.222 163.658,264.964 162.99,263.687 162.335,262.39 161.691,261.075 161.06,259.74 160.442,258.387 159.838,257.015 159.247,255.624 158.671,254.216 158.111,252.79 157.565,251.347 157.036,249.886 156.523,248.409 156.026,246.916 155.547,245.407 155.086,243.882 154.643,242.343 154.218,240.788 153.812,239.22 153.426,237.639 153.059,236.044 152.712,234.437 152.386,232.818 152.08,231.188 151.796,229.548 151.533,227.897 151.292,226.237 151.073,224.568 150.876,222.892 150.701,221.208 150.549,219.517 150.42,217.821 150.313,216.119 150.23,214.413 150.17,212.704 150.133,210.991 150.12,209.277 150.13,207.561 150.163,205.844 150.22,204.127 150.3,202.412 150.403,200.698 150.53,198.986 150.679,197.278 150.851,195.573 151.046,193.873 151.264,192.179 151.504,190.49 151.766,188.808 152.049,187.134 152.049,187.134 152.355,185.464 152.684,183.794 153.036,182.125 153.412,180.458 153.81,178.794 154.231,177.134 154.675,175.477 155.141,173.825 155.631,172.18 156.142,170.54 156.676,168.908 157.232,167.283 157.809,165.667 158.409,164.06 159.029,162.464 159.67,160.878 160.332,159.303 161.013,157.741 161.715,156.191 162.436,154.654 163.176,153.132 163.935,151.623 164.712,150.13 165.506,148.653 166.318,147.192 167.146,145.747 167.99,144.32 168.851,142.911 169.726,141.519 170.616,140.146 171.52,138.792 172.438,137.457 173.369,136.142 174.312,134.847 175.267,133.572 176.233,132.318 177.21,131.084 178.198,129.872 179.195,128.681 180.201,127.511 181.215,126.363 182.238,125.236 183.268,124.132 184.306,123.049 185.349,121.989 186.399,120.95 187.453,119.934 188.513,118.94 189.577,117.968 190.645,117.019 191.716,116.091 192.791,115.186 193.867,114.302 194.946,113.441 196.027,112.601 197.108,111.783 198.191,110.987 199.273,110.213 200.356,109.46 201.438,108.728 202.52,108.017 203.6,107.327 204.679,106.658 205.756,106.009 206.831,105.381 207.904,104.773 208.974,104.186 210.041,103.618 211.105,103.069 212.165,102.54 213.221,102.03 214.274,101.539 215.323,101.067 216.367,100.614 217.406,100.178 218.441,99.7612 219.47,99.3618 220.495,98.9801 221.514,98.6157 222.528,98.2685 223.536,97.9383 224.539,97.6247 225.536,97.3277 226.526,97.0469 227.511,96.7822 228.489,96.5333 229.462,96.3 230.428,96.0822 231.387,95.8795 232.34,95.6918 233.287,95.5189 234.226,95.3606 235.16,95.2166 236.086,95.0868 237.006,94.971 237.919,94.869 238.825,94.7807 239.724,94.7057 240.616,94.6441 241.502,94.5955 242.381,94.5598 243.252,94.5369 244.117,94.5266 244.975,94.5286 245.826,94.543 246.67,94.5695 247.507,94.608 248.338,94.6584 249.161,94.7205 249.978,94.7941 250.788,94.8793 251.591,94.9758 252.387,95.0835 253.177,95.2023 253.959,95.3322 254.735,95.473 255.505,95.6246 256.268,95.787 257.024,95.96 257.774,96.1435 258.517,96.3376 259.254,96.5421 259.984,96.7569 260.708,96.9821 261.426,97.2173 262.135,97.4622 262.836,97.7164 263.529,97.98 264.215,98.2528 264.893,98.5346 265.563,98.8255 266.225,99.1252 266.88,99.4337 267.527,99.7508 268.167,100.077 268.8,100.411 269.425,100.753 270.043,101.104 270.654,101.464 271.258,101.831 271.854,102.207 272.444,102.591 273.027,102.982 273.603,103.382 274.172,103.79 274.735,104.205 275.291,104.629 275.84,105.06 276.383,105.499 276.92,105.946 277.45,106.4 277.974,106.862 278.491,107.332 279.002,107.81 279.507,108.295 280.006,108.788 280.499,109.289 280.986,109.797 281.467,110.314 281.942,110.837 282.411,111.369 282.874,111.908 283.332,112.455 283.784,113.01 284.23,113.573 284.671,114.144 285.106,114.723 285.535,115.309 285.959,115.904 286.377,116.507 286.79,117.118 287.198,117.737 287.6,118.365 287.997,119.002 288.388,119.646 288.774,120.3 289.155,120.962 289.531,121.633 289.901,122.313 290.266,123.002 290.626,123.701 290.981,124.409 291.331,125.126 291.676,125.853 292.015,126.59 292.349,127.338 292.678,128.095 293.003,128.863 293.321,129.642 293.635,130.432 293.944,131.233 294.247,132.045 294.546,132.87 294.839,133.706 295.127,134.555 295.409,135.417 295.687,136.292 295.959,137.18 296.226,138.082 296.487,138.999 296.743,139.93 296.994,140.877 297.239,141.84 297.478,142.82 297.712,143.817 297.939,144.831 298.161,145.865 298.377,146.917 298.587,147.99 298.79,149.085 298.987,150.201 299.178,151.341 299.361,152.506 299.538,153.697 299.707,154.916 299.869,156.164 300.023,157.444 300.169,158.756 300.306,160.105 300.434,161.492 300.553,162.921 300.661,164.395 300.759,165.918 300.844,167.496 300.917,169.133 300.977,170.838 301.02,172.617 301.047,174.482 301.055,176.445 301.04,178.523 300.999,180.737 300.926,183.119 300.815,185.71 300.653,188.578 300.421,191.834 300.08,195.696 299.531,200.725 297.734,212.822" stroke-linecap="butt" fill="none" stroke-linejoin="round" stroke="#ff0000" stroke-width="0.5"/>
   <polyline points="327.572,43.6021 330.01,51.8018 332.07,60.3281 333.782,69.1592 335.169,78.2738 336.253,87.6511 337.05,97.27 337.574,107.11 337.837,117.149 337.85,127.367 337.623,137.742 337.163,148.252 336.479,158.875 335.577,169.59 334.462,180.373 333.142,191.203 331.62,202.056 329.902,212.91 327.992,223.742 325.894,234.529 323.612,245.248 321.149,255.876 318.508,266.391 315.691,276.767 312.701,286.984 309.538,297.018 306.203,306.844 302.696,316.441 299.015,325.785 295.158,334.853 291.119,343.619 286.893,352.06 282.472,360.15 277.843,367.863 272.991,375.171 267.896,382.043" stroke-linecap="butt" fill="none" stroke-linejoin="round" stroke="#0000ff" stroke-width="0.5"/>
  </g>
 </g>
</svg>
