<?xml version='1.0' encoding='UTF-8' standalone='no'?>
<svg xmlns:xlink="http://www.w3.org/1999/xlink" height="432pt" width="576pt" viewBox="0 0 576 432" xmlns="http://www.w3.org/2000/svg">
 <title>gl2ps_renderer figure</title>
 <desc>
Creator: GL2PS 1.4.0, (C) 1999-2017 C. Geuzaine
For: Octave
CreationDate: Fri Mar 18 10:11:30 2022
</desc>
 <defs/>
 <polygon fill="#ffffff" points="0,0 576,0 576,432 0,432"/>
 <g>
  <polygon shape-rendering="crispEdges" fill="#ffffff" points="0,432 576,432 576,0 0,0"/>
  <clipPath id="cp00576432">
   <polygon points="0,432 576,432 576,0 0,0"/>
  </clipPath>
  <g clip-path="url(#cp00576432)">
   <polygon shape-rendering="crispEdges" fill="#ffffff" points="129.929,384.143 466.231,384.143 466.231,47.8417 129.929,47.8417"/>
   <polyline stroke-width="0.5" stroke="#262626" stroke-linecap="butt" stroke-opacity="0.15" fill="none" stroke-linejoin="miter" points="157.954,384.143 157.954,47.8417" stroke-dasharray="16,0"/>
   <polyline stroke-width="0.5" stroke="#262626" stroke-linecap="butt" stroke-opacity="0.15" fill="none" stroke-linejoin="miter" points="185.98,384.143 185.98,47.8417" stroke-dasharray="16,0"/>
   <polyline stroke-width="0.5" stroke="#262626" stroke-linecap="butt" stroke-opacity="0.15" fill="none" stroke-linejoin="miter" points="214.005,384.143 214.005,47.8417" stroke-dasharray="16,0"/>
   <polyline stroke-width="0.5" stroke="#262626" stroke-linecap="butt" stroke-opacity="0.15" fill="none" stroke-linejoin="miter" points="242.03,384.143 242.03,47.8417" stroke-dasharray="16,0"/>
   <polyline stroke-width="0.5" stroke="#262626" stroke-linecap="butt" stroke-opacity="0.15" fill="none" stroke-linejoin="miter" points="270.055,384.143 270.055,47.8417" stroke-dasharray="16,0"/>
   <polyline stroke-width="0.5" stroke="#262626" stroke-linecap="butt" stroke-opacity="0.15" fill="none" stroke-linejoin="miter" points="298.08,384.143 298.08,47.8417" stroke-dasharray="16,0"/>
   <polyline stroke-width="0.5" stroke="#262626" stroke-linecap="butt" stroke-opacity="0.15" fill="none" stroke-linejoin="miter" points="326.105,384.143 326.105,47.8417" stroke-dasharray="16,0"/>
   <polyline stroke-width="0.5" stroke="#262626" stroke-linecap="butt" stroke-opacity="0.15" fill="none" stroke-linejoin="miter" points="354.13,384.143 354.13,47.8417" stroke-dasharray="16,0"/>
   <polyline stroke-width="0.5" stroke="#262626" stroke-linecap="butt" stroke-opacity="0.15" fill="none" stroke-linejoin="miter" points="382.155,384.143 382.155,47.8417" stroke-dasharray="16,0"/>
   <polyline stroke-width="0.5" stroke="#262626" stroke-linecap="butt" stroke-opacity="0.15" fill="none" stroke-linejoin="miter" points="410.18,384.143 410.18,47.8417" stroke-dasharray="16,0"/>
   <polyline stroke-width="0.5" stroke="#262626" stroke-linecap="butt" stroke-opacity="0.15" fill="none" stroke-linejoin="miter" points="438.206,384.143 438.206,47.8417" stroke-dasharray="16,0"/>
   <polyline stroke-width="0.5" stroke="#262626" stroke-linecap="butt" fill="none" stroke-linejoin="miter" points="129.929,215.992 466.231,215.992"/>
   <polyline stroke-width="0.5" stroke="#262626" stroke-linecap="butt" fill="none" stroke-linejoin="miter" points="157.954,215.992 157.954,211.524"/>
   <polyline stroke-width="0.5" stroke="#262626" stroke-linecap="butt" fill="none" stroke-linejoin="miter" points="185.98,215.992 185.98,211.524"/>
   <polyline stroke-width="0.5" stroke="#262626" stroke-linecap="butt" fill="none" stroke-linejoin="miter" points="214.005,215.992 214.005,211.524"/>
   <polyline stroke-width="0.5" stroke="#262626" stroke-linecap="butt" fill="none" stroke-linejoin="miter" points="242.03,215.992 242.03,211.524"/>
   <polyline stroke-width="0.5" stroke="#262626" stroke-linecap="butt" fill="none" stroke-linejoin="miter" points="270.055,215.992 270.055,211.524"/>
   <polyline stroke-width="0.5" stroke="#262626" stroke-linecap="butt" fill="none" stroke-linejoin="miter" points="298.08,215.992 298.08,211.524"/>
   <polyline stroke-width="0.5" stroke="#262626" stroke-linecap="butt" fill="none" stroke-linejoin="miter" points="326.105,215.992 326.105,211.524"/>
   <polyline stroke-width="0.5" stroke="#262626" stroke-linecap="butt" fill="none" stroke-linejoin="miter" points="354.13,215.992 354.13,211.524"/>
   <polyline stroke-width="0.5" stroke="#262626" stroke-linecap="butt" fill="none" stroke-linejoin="miter" points="382.155,215.992 382.155,211.524"/>
   <polyline stroke-width="0.5" stroke="#262626" stroke-linecap="butt" fill="none" stroke-linejoin="miter" points="410.18,215.992 410.18,211.524"/>
   <polyline stroke-width="0.5" stroke="#262626" stroke-linecap="butt" fill="none" stroke-linejoin="miter" points="438.206,215.992 438.206,211.524"/>
   <text font-weight="normal" transform="translate(153.454,231.499) rotate(-0,4.5,-8)" font-size="10" font-family="FreeSans" xml:space="preserve" font-style="normal">
    <tspan x="0 3 " fill="rgb(38,38,38)" y="-0">-1</tspan>
   </text>
   <text font-weight="normal" transform="translate(176.98,231.499) rotate(-0,9,-8)" font-size="10" font-family="FreeSans" xml:space="preserve" font-style="normal">
    <tspan x="0 3 9 12 " fill="rgb(38,38,38)" y="-0">-0.8</tspan>
   </text>
   <text font-weight="normal" transform="translate(205.005,231.499) rotate(-0,9,-8)" font-size="10" font-family="FreeSans" xml:space="preserve" font-style="normal">
    <tspan x="0 3 9 12 " fill="rgb(38,38,38)" y="-0">-0.6</tspan>
   </text>
   <text font-weight="normal" transform="translate(233.03,231.499) rotate(-0,9,-8)" font-size="10" font-family="FreeSans" xml:space="preserve" font-style="normal">
    <tspan x="0 3 9 12 " fill="rgb(38,38,38)" y="-0">-0.4</tspan>
   </text>
   <text font-weight="normal" transform="translate(261.055,231.499) rotate(-0,9,-8)" font-size="10" font-family="FreeSans" xml:space="preserve" font-style="normal">
    <tspan x="0 3 9 12 " fill="rgb(38,38,38)" y="-0">-0.2</tspan>
   </text>
   <text font-weight="normal" transform="translate(318.605,231.499) rotate(-0,7.5,-8)" font-size="10" font-family="FreeSans" xml:space="preserve" font-style="normal">
    <tspan x="0 6 9 " fill="rgb(38,38,38)" y="-0">0.2</tspan>
   </text>
   <text font-weight="normal" transform="translate(346.63,231.499) rotate(-0,7.5,-8)" font-size="10" font-family="FreeSans" xml:space="preserve" font-style="normal">
    <tspan x="0 6 9 " fill="rgb(38,38,38)" y="-0">0.4</tspan>
   </text>
   <text font-weight="normal" transform="translate(374.655,231.499) rotate(-0,7.5,-8)" font-size="10" font-family="FreeSans" xml:space="preserve" font-style="normal">
    <tspan x="0 6 9 " fill="rgb(38,38,38)" y="-0">0.6</tspan>
   </text>
   <text font-weight="normal" transform="translate(402.68,231.499) rotate(-0,7.5,-8)" font-size="10" font-family="FreeSans" xml:space="preserve" font-style="normal">
    <tspan x="0 6 9 " fill="rgb(38,38,38)" y="-0">0.8</tspan>
   </text>
   <text font-weight="normal" transform="translate(435.206,231.499) rotate(-0,3,-8)" font-size="10" font-family="FreeSans" xml:space="preserve" font-style="normal">
    <tspan x="0 " fill="rgb(38,38,38)" y="-0">1</tspan>
   </text>
   <polyline stroke-width="0.5" stroke="#262626" stroke-linecap="butt" stroke-opacity="0.15" fill="none" stroke-linejoin="miter" points="129.929,356.118 466.231,356.118" stroke-dasharray="16,0"/>
   <polyline stroke-width="0.5" stroke="#262626" stroke-linecap="butt" stroke-opacity="0.15" fill="none" stroke-linejoin="miter" points="129.929,328.093 466.231,328.093" stroke-dasharray="16,0"/>
   <polyline stroke-width="0.5" stroke="#262626" stroke-linecap="butt" stroke-opacity="0.15" fill="none" stroke-linejoin="miter" points="129.929,300.068 466.231,300.068" stroke-dasharray="16,0"/>
   <polyline stroke-width="0.5" stroke="#262626" stroke-linecap="butt" stroke-opacity="0.15" fill="none" stroke-linejoin="miter" points="129.929,272.043 466.231,272.043" stroke-dasharray="16,0"/>
   <polyline stroke-width="0.5" stroke="#262626" stroke-linecap="butt" stroke-opacity="0.15" fill="none" stroke-linejoin="miter" points="129.929,244.017 466.231,244.017" stroke-dasharray="16,0"/>
   <polyline stroke-width="0.5" stroke="#262626" stroke-linecap="butt" stroke-opacity="0.15" fill="none" stroke-linejoin="miter" points="129.929,215.992 466.231,215.992" stroke-dasharray="16,0"/>
   <polyline stroke-width="0.5" stroke="#262626" stroke-linecap="butt" stroke-opacity="0.15" fill="none" stroke-linejoin="miter" points="129.929,187.967 466.231,187.967" stroke-dasharray="16,0"/>
   <polyline stroke-width="0.5" stroke="#262626" stroke-linecap="butt" stroke-opacity="0.15" fill="none" stroke-linejoin="miter" points="129.929,159.942 466.231,159.942" stroke-dasharray="16,0"/>
   <polyline stroke-width="0.5" stroke="#262626" stroke-linecap="butt" stroke-opacity="0.15" fill="none" stroke-linejoin="miter" points="129.929,131.917 466.231,131.917" stroke-dasharray="16,0"/>
   <polyline stroke-width="0.5" stroke="#262626" stroke-linecap="butt" stroke-opacity="0.15" fill="none" stroke-linejoin="miter" points="129.929,103.892 466.231,103.892" stroke-dasharray="16,0"/>
   <polyline stroke-width="0.5" stroke="#262626" stroke-linecap="butt" stroke-opacity="0.15" fill="none" stroke-linejoin="miter" points="129.929,75.8668 466.231,75.8668" stroke-dasharray="16,0"/>
   <polyline stroke-width="0.5" stroke="#262626" stroke-linecap="butt" fill="none" stroke-linejoin="miter" points="298.08,384.143 298.08,47.8417"/>
   <polyline stroke-width="0.5" stroke="#262626" stroke-linecap="butt" fill="none" stroke-linejoin="miter" points="298.08,356.118 302.548,356.118"/>
   <polyline stroke-width="0.5" stroke="#262626" stroke-linecap="butt" fill="none" stroke-linejoin="miter" points="298.08,328.093 302.548,328.093"/>
   <polyline stroke-width="0.5" stroke="#262626" stroke-linecap="butt" fill="none" stroke-linejoin="miter" points="298.08,300.068 302.548,300.068"/>
   <polyline stroke-width="0.5" stroke="#262626" stroke-linecap="butt" fill="none" stroke-linejoin="miter" points="298.08,272.043 302.548,272.043"/>
   <polyline stroke-width="0.5" stroke="#262626" stroke-linecap="butt" fill="none" stroke-linejoin="miter" points="298.08,244.017 302.548,244.017"/>
   <polyline stroke-width="0.5" stroke="#262626" stroke-linecap="butt" fill="none" stroke-linejoin="miter" points="298.08,215.992 302.548,215.992"/>
   <polyline stroke-width="0.5" stroke="#262626" stroke-linecap="butt" fill="none" stroke-linejoin="miter" points="298.08,187.967 302.548,187.967"/>
   <polyline stroke-width="0.5" stroke="#262626" stroke-linecap="butt" fill="none" stroke-linejoin="miter" points="298.08,159.942 302.548,159.942"/>
   <polyline stroke-width="0.5" stroke="#262626" stroke-linecap="butt" fill="none" stroke-linejoin="miter" points="298.08,131.917 302.548,131.917"/>
   <polyline stroke-width="0.5" stroke="#262626" stroke-linecap="butt" fill="none" stroke-linejoin="miter" points="298.08,103.892 302.548,103.892"/>
   <polyline stroke-width="0.5" stroke="#262626" stroke-linecap="butt" fill="none" stroke-linejoin="miter" points="298.08,75.8668 302.548,75.8668"/>
   <text font-weight="normal" transform="translate(284.076,360.118) rotate(-0,9,-4)" font-size="10" font-family="FreeSans" xml:space="preserve" font-style="normal">
    <tspan x="0 3 " fill="rgb(38,38,38)" y="-0">-1</tspan>
   </text>
   <text font-weight="normal" transform="translate(275.076,332.093) rotate(-0,18,-4)" font-size="10" font-family="FreeSans" xml:space="preserve" font-style="normal">
    <tspan x="0 3 9 12 " fill="rgb(38,38,38)" y="-0">-0.8</tspan>
   </text>
   <text font-weight="normal" transform="translate(275.076,304.068) rotate(-0,18,-4)" font-size="10" font-family="FreeSans" xml:space="preserve" font-style="normal">
    <tspan x="0 3 9 12 " fill="rgb(38,38,38)" y="-0">-0.6</tspan>
   </text>
   <text font-weight="normal" transform="translate(275.076,276.043) rotate(-0,18,-4)" font-size="10" font-family="FreeSans" xml:space="preserve" font-style="normal">
    <tspan x="0 3 9 12 " fill="rgb(38,38,38)" y="-0">-0.4</tspan>
   </text>
   <text font-weight="normal" transform="translate(275.076,248.017) rotate(-0,18,-4)" font-size="10" font-family="FreeSans" xml:space="preserve" font-style="normal">
    <tspan x="0 3 9 12 " fill="rgb(38,38,38)" y="-0">-0.2</tspan>
   </text>
   <text font-weight="normal" transform="translate(278.076,191.967) rotate(-0,15,-4)" font-size="10" font-family="FreeSans" xml:space="preserve" font-style="normal">
    <tspan x="0 6 9 " fill="rgb(38,38,38)" y="-0">0.2</tspan>
   </text>
   <text font-weight="normal" transform="translate(278.076,163.942) rotate(-0,15,-4)" font-size="10" font-family="FreeSans" xml:space="preserve" font-style="normal">
    <tspan x="0 6 9 " fill="rgb(38,38,38)" y="-0">0.4</tspan>
   </text>
   <text font-weight="normal" transform="translate(278.076,135.917) rotate(-0,15,-4)" font-size="10" font-family="FreeSans" xml:space="preserve" font-style="normal">
    <tspan x="0 6 9 " fill="rgb(38,38,38)" y="-0">0.6</tspan>
   </text>
   <text font-weight="normal" transform="translate(278.076,107.892) rotate(-0,15,-4)" font-size="10" font-family="FreeSans" xml:space="preserve" font-style="normal">
    <tspan x="0 6 9 " fill="rgb(38,38,38)" y="-0">0.8</tspan>
   </text>
   <text font-weight="normal" transform="translate(287.076,79.8668) rotate(-0,6,-4)" font-size="10" font-family="FreeSans" xml:space="preserve" font-style="normal">
    <tspan x="0 " fill="rgb(38,38,38)" y="-0">1</tspan>
   </text>
   <polyline stroke-width="0.5" stroke="#000000" stroke-linecap="butt" fill="none" stroke-linejoin="round" points="388.151,108.65 386.237,122.936 382.633,137.409 377.561,152.02 371.193,166.701 363.673,181.374 355.128,195.95 345.671,210.334 335.408,224.423 324.441,238.112 312.864,251.289 300.771,263.842 288.248,275.654 275.378,286.6 262.234,296.554 248.881,305.374 235.373,312.907 221.745,318.969 208.009,323.335"/>
   <polyline stroke-width="0.5" stroke="#000000" stroke-linecap="round" fill="none" stroke-linejoin="round" points="391.151,108.65 390.578,110.413 389.078,111.503 387.224,111.503 385.724,110.413 385.151,108.65 385.724,106.887 387.224,105.797 389.078,105.797 390.578,106.887 391.151,108.65"/>
   <polyline stroke-width="0.5" stroke="#000000" stroke-linecap="round" fill="none" stroke-linejoin="round" points="389.237,122.936 388.664,124.699 387.164,125.789 385.31,125.789 383.81,124.699 383.237,122.936 383.81,121.172 385.31,120.082 387.164,120.082 388.664,121.172 389.237,122.936"/>
   <polyline stroke-width="0.5" stroke="#000000" stroke-linecap="round" fill="none" stroke-linejoin="round" points="385.633,137.409 385.06,139.173 383.56,140.263 381.706,140.263 380.206,139.173 379.633,137.409 380.206,135.646 381.706,134.556 383.56,134.556 385.06,135.646 385.633,137.409"/>
   <polyline stroke-width="0.5" stroke="#000000" stroke-linecap="round" fill="none" stroke-linejoin="round" points="380.561,152.02 379.988,153.783 378.488,154.873 376.634,154.873 375.134,153.783 374.561,152.02 375.134,150.257 376.634,149.167 378.488,149.167 379.988,150.257 380.561,152.02"/>
   <polyline stroke-width="0.5" stroke="#000000" stroke-linecap="round" fill="none" stroke-linejoin="round" points="374.193,166.701 373.62,168.465 372.12,169.554 370.266,169.554 368.766,168.465 368.193,166.701 368.766,164.938 370.266,163.848 372.12,163.848 373.62,164.938 374.193,166.701"/>
   <polyline stroke-width="0.5" stroke="#000000" stroke-linecap="round" fill="none" stroke-linejoin="round" points="366.673,181.374 366.1,183.137 364.6,184.227 362.746,184.227 361.246,183.137 360.673,181.374 361.246,179.611 362.746,178.521 364.6,178.521 366.1,179.611 366.673,181.374"/>
   <polyline stroke-width="0.5" stroke="#000000" stroke-linecap="round" fill="none" stroke-linejoin="round" points="358.128,195.95 357.555,197.713 356.055,198.803 354.201,198.803 352.701,197.713 352.128,195.95 352.701,194.187 354.201,193.097 356.055,193.097 357.555,194.187 358.128,195.95"/>
   <polyline stroke-width="0.5" stroke="#000000" stroke-linecap="round" fill="none" stroke-linejoin="round" points="348.671,210.334 348.098,212.097 346.598,213.187 344.743,213.187 343.243,212.097 342.671,210.334 343.243,208.57 344.743,207.48 346.598,207.48 348.098,208.57 348.671,210.334"/>
   <polyline stroke-width="0.5" stroke="#000000" stroke-linecap="round" fill="none" stroke-linejoin="round" points="338.408,224.423 337.835,226.186 336.335,227.276 334.481,227.276 332.981,226.186 332.408,224.423 332.981,222.66 334.481,221.57 336.335,221.57 337.835,222.66 338.408,224.423"/>
   <polyline stroke-width="0.5" stroke="#000000" stroke-linecap="round" fill="none" stroke-linejoin="round" points="327.441,238.112 326.868,239.875 325.368,240.965 323.514,240.965 322.014,239.875 321.441,238.112 322.014,236.348 323.514,235.258 325.368,235.258 326.868,236.348 327.441,238.112"/>
   <polyline stroke-width="0.5" stroke="#000000" stroke-linecap="round" fill="none" stroke-linejoin="round" points="315.864,251.289 315.292,253.053 313.792,254.142 311.937,254.142 310.437,253.053 309.864,251.289 310.437,249.526 311.937,248.436 313.792,248.436 315.292,249.526 315.864,251.289"/>
   <polyline stroke-width="0.5" stroke="#000000" stroke-linecap="round" fill="none" stroke-linejoin="round" points="303.771,263.842 303.198,265.606 301.698,266.696 299.844,266.696 298.344,265.606 297.771,263.842 298.344,262.079 299.844,260.989 301.698,260.989 303.198,262.079 303.771,263.842"/>
   <polyline stroke-width="0.5" stroke="#000000" stroke-linecap="round" fill="none" stroke-linejoin="round" points="291.248,275.654 290.676,277.417 289.176,278.507 287.321,278.507 285.821,277.417 285.248,275.654 285.821,273.89 287.321,272.8 289.176,272.8 290.676,273.89 291.248,275.654"/>
   <polyline stroke-width="0.5" stroke="#000000" stroke-linecap="round" fill="none" stroke-linejoin="round" points="278.378,286.6 277.805,288.364 276.305,289.453 274.451,289.453 272.951,288.364 272.378,286.6 272.951,284.837 274.451,283.747 276.305,283.747 277.805,284.837 278.378,286.6"/>
   <polyline stroke-width="0.5" stroke="#000000" stroke-linecap="round" fill="none" stroke-linejoin="round" points="265.234,296.554 264.661,298.317 263.161,299.407 261.307,299.407 259.807,298.317 259.234,296.554 259.807,294.79 261.307,293.7 263.161,293.7 264.661,294.79 265.234,296.554"/>
   <polyline stroke-width="0.5" stroke="#000000" stroke-linecap="round" fill="none" stroke-linejoin="round" points="251.881,305.374 251.308,307.138 249.808,308.228 247.954,308.228 246.454,307.138 245.881,305.374 246.454,303.611 247.954,302.521 249.808,302.521 251.308,303.611 251.881,305.374"/>
   <polyline stroke-width="0.5" stroke="#000000" stroke-linecap="round" fill="none" stroke-linejoin="round" points="238.373,312.907 237.801,314.67 236.301,315.76 234.446,315.76 232.946,314.67 232.373,312.907 232.946,311.144 234.446,310.054 236.301,310.054 237.801,311.144 238.373,312.907"/>
   <polyline stroke-width="0.5" stroke="#000000" stroke-linecap="round" fill="none" stroke-linejoin="round" points="224.745,318.969 224.172,320.732 222.672,321.822 220.818,321.822 219.318,320.732 218.745,318.969 219.318,317.206 220.818,316.116 222.672,316.116 224.172,317.206 224.745,318.969"/>
   <polyline stroke-width="0.5" stroke="#000000" stroke-linecap="round" fill="none" stroke-linejoin="round" points="211.009,323.335 210.436,325.098 208.936,326.188 207.082,326.188 205.582,325.098 205.009,323.335 205.582,321.571 207.082,320.482 208.936,320.482 210.436,321.571 211.009,323.335"/>
   <polyline stroke-width="0.5" stroke="#000000" stroke-linecap="butt" fill="none" stroke-linejoin="round" points="298.08,215.992 286.923,227.769 274.438,237.965 260.702,246.077 245.727,251.288 229.543,252.164 212.519,246.052 196.717,228.045 190.365,191.665 211.008,142.93 255.417,114.138 292.348,114.076 312.826,126.512 321.801,142.215 323.748,158.306 321.217,173.958 315.613,188.894 307.741,202.96 298.08,215.992"/>
   <polyline stroke-width="0.5" stroke="#000000" stroke-linecap="round" fill="none" stroke-linejoin="round" points="298.08,212.992 295.08,218.992 301.08,218.992 298.08,212.992"/>
   <polyline stroke-width="0.5" stroke="#000000" stroke-linecap="round" fill="none" stroke-linejoin="round" points="286.923,224.769 283.923,230.769 289.923,230.769 286.923,224.769"/>
   <polyline stroke-width="0.5" stroke="#000000" stroke-linecap="round" fill="none" stroke-linejoin="round" points="274.438,234.965 271.438,240.965 277.438,240.965 274.438,234.965"/>
   <polyline stroke-width="0.5" stroke="#000000" stroke-linecap="round" fill="none" stroke-linejoin="round" points="260.702,243.077 257.702,249.077 263.702,249.077 260.702,243.077"/>
   <polyline stroke-width="0.5" stroke="#000000" stroke-linecap="round" fill="none" stroke-linejoin="round" points="245.727,248.288 242.727,254.288 248.727,254.288 245.727,248.288"/>
   <polyline stroke-width="0.5" stroke="#000000" stroke-linecap="round" fill="none" stroke-linejoin="round" points="229.543,249.165 226.543,255.165 232.543,255.165 229.543,249.165"/>
   <polyline stroke-width="0.5" stroke="#000000" stroke-linecap="round" fill="none" stroke-linejoin="round" points="212.519,243.052 209.519,249.052 215.519,249.052 212.519,243.052"/>
   <polyline stroke-width="0.5" stroke="#000000" stroke-linecap="round" fill="none" stroke-linejoin="round" points="196.717,225.045 193.717,231.045 199.717,231.045 196.717,225.045"/>
   <polyline stroke-width="0.5" stroke="#000000" stroke-linecap="round" fill="none" stroke-linejoin="round" points="190.365,188.665 187.365,194.665 193.365,194.665 190.365,188.665"/>
   <polyline stroke-width="0.5" stroke="#000000" stroke-linecap="round" fill="none" stroke-linejoin="round" points="211.008,139.93 208.008,145.93 214.008,145.93 211.008,139.93"/>
   <polyline stroke-width="0.5" stroke="#000000" stroke-linecap="round" fill="none" stroke-linejoin="round" points="255.417,111.138 252.417,117.138 258.417,117.138 255.417,111.138"/>
   <polyline stroke-width="0.5" stroke="#000000" stroke-linecap="round" fill="none" stroke-linejoin="round" points="292.348,111.076 289.348,117.076 295.348,117.076 292.348,111.076"/>
   <polyline stroke-width="0.5" stroke="#000000" stroke-linecap="round" fill="none" stroke-linejoin="round" points="312.826,123.512 309.826,129.512 315.826,129.512 312.826,123.512"/>
   <polyline stroke-width="0.5" stroke="#000000" stroke-linecap="round" fill="none" stroke-linejoin="round" points="321.801,139.215 318.801,145.215 324.801,145.215 321.801,139.215"/>
   <polyline stroke-width="0.5" stroke="#000000" stroke-linecap="round" fill="none" stroke-linejoin="round" points="323.748,155.306 320.748,161.306 326.748,161.306 323.748,155.306"/>
   <polyline stroke-width="0.5" stroke="#000000" stroke-linecap="round" fill="none" stroke-linejoin="round" points="321.217,170.958 318.217,176.958 324.217,176.958 321.217,170.958"/>
   <polyline stroke-width="0.5" stroke="#000000" stroke-linecap="round" fill="none" stroke-linejoin="round" points="315.613,185.894 312.613,191.894 318.613,191.894 315.613,185.894"/>
   <polyline stroke-width="0.5" stroke="#000000" stroke-linecap="round" fill="none" stroke-linejoin="round" points="307.741,199.96 304.741,205.96 310.741,205.96 307.741,199.96"/>
   <polyline stroke-width="0.5" stroke="#000000" stroke-linecap="round" fill="none" stroke-linejoin="round" points="298.08,212.992 295.08,218.992 301.08,218.992 298.08,212.992"/>
   <polyline stroke-width="0.5" stroke="#000000" stroke-linecap="butt" fill="none" stroke-linejoin="round" points="438.206,215.992 436.077,191.66 429.755,168.067 419.432,145.93 405.422,125.921 388.151,108.65 368.143,94.64 346.006,84.3174 322.413,77.9956 298.08,75.8668 273.747,77.9956 250.154,84.3174 228.017,94.64 208.009,108.65 190.738,125.921 176.728,145.93 166.405,168.067 160.083,191.66 157.954,215.992 160.083,240.325 166.405,263.918 176.728,286.055 190.738,306.063 208.009,323.335 228.017,337.345 250.154,347.667 273.747,353.989 298.08,356.118 322.413,353.989 346.006,347.667 368.143,337.345 388.151,323.335 405.422,306.063 419.432,286.055 429.755,263.918 436.077,240.325 438.206,215.992"/>
   <polyline stroke-width="0.5" stroke="#000000" stroke-linecap="square" fill="none" stroke-linejoin="miter" points="435.206,212.992 441.206,218.992"/>
   <polyline stroke-width="0.5" stroke="#000000" stroke-linecap="square" fill="none" stroke-linejoin="miter" points="435.206,218.992 441.206,212.992"/>
   <polyline stroke-width="0.5" stroke="#000000" stroke-linecap="square" fill="none" stroke-linejoin="miter" points="433.077,188.66 439.077,194.66"/>
   <polyline stroke-width="0.5" stroke="#000000" stroke-linecap="square" fill="none" stroke-linejoin="miter" points="433.077,194.66 439.077,188.66"/>
   <polyline stroke-width="0.5" stroke="#000000" stroke-linecap="square" fill="none" stroke-linejoin="miter" points="426.755,165.067 432.755,171.067"/>
   <polyline stroke-width="0.5" stroke="#000000" stroke-linecap="square" fill="none" stroke-linejoin="miter" points="426.755,171.067 432.755,165.067"/>
   <polyline stroke-width="0.5" stroke="#000000" stroke-linecap="square" fill="none" stroke-linejoin="miter" points="416.432,142.93 422.432,148.93"/>
   <polyline stroke-width="0.5" stroke="#000000" stroke-linecap="square" fill="none" stroke-linejoin="miter" points="416.432,148.93 422.432,142.93"/>
   <polyline stroke-width="0.5" stroke="#000000" stroke-linecap="square" fill="none" stroke-linejoin="miter" points="402.422,122.921 408.422,128.921"/>
   <polyline stroke-width="0.5" stroke="#000000" stroke-linecap="square" fill="none" stroke-linejoin="miter" points="402.422,128.921 408.422,122.921"/>
   <polyline stroke-width="0.5" stroke="#000000" stroke-linecap="square" fill="none" stroke-linejoin="miter" points="385.151,105.65 391.151,111.65"/>
   <polyline stroke-width="0.5" stroke="#000000" stroke-linecap="square" fill="none" stroke-linejoin="miter" points="385.151,111.65 391.151,105.65"/>
   <polyline stroke-width="0.5" stroke="#000000" stroke-linecap="square" fill="none" stroke-linejoin="miter" points="365.143,91.64 371.143,97.64"/>
   <polyline stroke-width="0.5" stroke="#000000" stroke-linecap="square" fill="none" stroke-linejoin="miter" points="365.143,97.64 371.143,91.64"/>
   <polyline stroke-width="0.5" stroke="#000000" stroke-linecap="square" fill="none" stroke-linejoin="miter" points="343.006,81.3174 349.006,87.3174"/>
   <polyline stroke-width="0.5" stroke="#000000" stroke-linecap="square" fill="none" stroke-linejoin="miter" points="343.006,87.3174 349.006,81.3174"/>
   <polyline stroke-width="0.5" stroke="#000000" stroke-linecap="square" fill="none" stroke-linejoin="miter" points="319.413,74.9956 325.413,80.9956"/>
   <polyline stroke-width="0.5" stroke="#000000" stroke-linecap="square" fill="none" stroke-linejoin="miter" points="319.413,80.9956 325.413,74.9956"/>
   <polyline stroke-width="0.5" stroke="#000000" stroke-linecap="square" fill="none" stroke-linejoin="miter" points="295.08,72.8668 301.08,78.8668"/>
   <polyline stroke-width="0.5" stroke="#000000" stroke-linecap="square" fill="none" stroke-linejoin="miter" points="295.08,78.8668 301.08,72.8668"/>
   <polyline stroke-width="0.5" stroke="#000000" stroke-linecap="square" fill="none" stroke-linejoin="miter" points="270.747,74.9956 276.747,80.9956"/>
   <polyline stroke-width="0.5" stroke="#000000" stroke-linecap="square" fill="none" stroke-linejoin="miter" points="270.747,80.9956 276.747,74.9956"/>
   <polyline stroke-width="0.5" stroke="#000000" stroke-linecap="square" fill="none" stroke-linejoin="miter" points="247.154,81.3174 253.154,87.3174"/>
   <polyline stroke-width="0.5" stroke="#000000" stroke-linecap="square" fill="none" stroke-linejoin="miter" points="247.154,87.3174 253.154,81.3174"/>
   <polyline stroke-width="0.5" stroke="#000000" stroke-linecap="square" fill="none" stroke-linejoin="miter" points="225.017,91.64 231.017,97.64"/>
   <polyline stroke-width="0.5" stroke="#000000" stroke-linecap="square" fill="none" stroke-linejoin="miter" points="225.017,97.64 231.017,91.64"/>
   <polyline stroke-width="0.5" stroke="#000000" stroke-linecap="square" fill="none" stroke-linejoin="miter" points="205.009,105.65 211.009,111.65"/>
   <polyline stroke-width="0.5" stroke="#000000" stroke-linecap="square" fill="none" stroke-linejoin="miter" points="205.009,111.65 211.009,105.65"/>
   <polyline stroke-width="0.5" stroke="#000000" stroke-linecap="square" fill="none" stroke-linejoin="miter" points="187.738,122.921 193.738,128.921"/>
   <polyline stroke-width="0.5" stroke="#000000" stroke-linecap="square" fill="none" stroke-linejoin="miter" points="187.738,128.921 193.738,122.921"/>
   <polyline stroke-width="0.5" stroke="#000000" stroke-linecap="square" fill="none" stroke-linejoin="miter" points="173.728,142.93 179.728,148.93"/>
   <polyline stroke-width="0.5" stroke="#000000" stroke-linecap="square" fill="none" stroke-linejoin="miter" points="173.728,148.93 179.728,142.93"/>
   <polyline stroke-width="0.5" stroke="#000000" stroke-linecap="square" fill="none" stroke-linejoin="miter" points="163.405,165.067 169.405,171.067"/>
   <polyline stroke-width="0.5" stroke="#000000" stroke-linecap="square" fill="none" stroke-linejoin="miter" points="163.405,171.067 169.405,165.067"/>
   <polyline stroke-width="0.5" stroke="#000000" stroke-linecap="square" fill="none" stroke-linejoin="miter" points="157.083,188.66 163.083,194.66"/>
   <polyline stroke-width="0.5" stroke="#000000" stroke-linecap="square" fill="none" stroke-linejoin="miter" points="157.083,194.66 163.083,188.66"/>
   <polyline stroke-width="0.5" stroke="#000000" stroke-linecap="square" fill="none" stroke-linejoin="miter" points="154.954,212.992 160.954,218.992"/>
   <polyline stroke-width="0.5" stroke="#000000" stroke-linecap="square" fill="none" stroke-linejoin="miter" points="154.954,218.992 160.954,212.992"/>
   <polyline stroke-width="0.5" stroke="#000000" stroke-linecap="square" fill="none" stroke-linejoin="miter" points="157.083,237.325 163.083,243.325"/>
   <polyline stroke-width="0.5" stroke="#000000" stroke-linecap="square" fill="none" stroke-linejoin="miter" points="157.083,243.325 163.083,237.325"/>
   <polyline stroke-width="0.5" stroke="#000000" stroke-linecap="square" fill="none" stroke-linejoin="miter" points="163.405,260.918 169.405,266.918"/>
   <polyline stroke-width="0.5" stroke="#000000" stroke-linecap="square" fill="none" stroke-linejoin="miter" points="163.405,266.918 169.405,260.918"/>
   <polyline stroke-width="0.5" stroke="#000000" stroke-linecap="square" fill="none" stroke-linejoin="miter" points="173.728,283.055 179.728,289.055"/>
   <polyline stroke-width="0.5" stroke="#000000" stroke-linecap="square" fill="none" stroke-linejoin="miter" points="173.728,289.055 179.728,283.055"/>
   <polyline stroke-width="0.5" stroke="#000000" stroke-linecap="square" fill="none" stroke-linejoin="miter" points="187.738,303.063 193.738,309.063"/>
   <polyline stroke-width="0.5" stroke="#000000" stroke-linecap="square" fill="none" stroke-linejoin="miter" points="187.738,309.063 193.738,303.063"/>
   <polyline stroke-width="0.5" stroke="#000000" stroke-linecap="square" fill="none" stroke-linejoin="miter" points="205.009,320.335 211.009,326.335"/>
   <polyline stroke-width="0.5" stroke="#000000" stroke-linecap="square" fill="none" stroke-linejoin="miter" points="205.009,326.335 211.009,320.335"/>
   <polyline stroke-width="0.5" stroke="#000000" stroke-linecap="square" fill="none" stroke-linejoin="miter" points="225.017,334.345 231.017,340.345"/>
   <polyline stroke-width="0.5" stroke="#000000" stroke-linecap="square" fill="none" stroke-linejoin="miter" points="225.017,340.345 231.017,334.345"/>
   <polyline stroke-width="0.5" stroke="#000000" stroke-linecap="square" fill="none" stroke-linejoin="miter" points="247.154,344.667 253.154,350.667"/>
   <polyline stroke-width="0.5" stroke="#000000" stroke-linecap="square" fill="none" stroke-linejoin="miter" points="247.154,350.667 253.154,344.667"/>
   <polyline stroke-width="0.5" stroke="#000000" stroke-linecap="square" fill="none" stroke-linejoin="miter" points="270.747,350.989 276.747,356.989"/>
   <polyline stroke-width="0.5" stroke="#000000" stroke-linecap="square" fill="none" stroke-linejoin="miter" points="270.747,356.989 276.747,350.989"/>
   <polyline stroke-width="0.5" stroke="#000000" stroke-linecap="square" fill="none" stroke-linejoin="miter" points="295.08,353.118 301.08,359.118"/>
   <polyline stroke-width="0.5" stroke="#000000" stroke-linecap="square" fill="none" stroke-linejoin="miter" points="295.08,359.118 301.08,353.118"/>
   <polyline stroke-width="0.5" stroke="#000000" stroke-linecap="square" fill="none" stroke-linejoin="miter" points="319.413,350.989 325.413,356.989"/>
   <polyline stroke-width="0.5" stroke="#000000" stroke-linecap="square" fill="none" stroke-linejoin="miter" points="319.413,356.989 325.413,350.989"/>
   <polyline stroke-width="0.5" stroke="#000000" stroke-linecap="square" fill="none" stroke-linejoin="miter" points="343.006,344.667 349.006,350.667"/>
   <polyline stroke-width="0.5" stroke="#000000" stroke-linecap="square" fill="none" stroke-linejoin="miter" points="343.006,350.667 349.006,344.667"/>
   <polyline stroke-width="0.5" stroke="#000000" stroke-linecap="square" fill="none" stroke-linejoin="miter" points="365.143,334.345 371.143,340.345"/>
   <polyline stroke-width="0.5" stroke="#000000" stroke-linecap="square" fill="none" stroke-linejoin="miter" points="365.143,340.345 371.143,334.345"/>
   <polyline stroke-width="0.5" stroke="#000000" stroke-linecap="square" fill="none" stroke-linejoin="miter" points="385.151,320.335 391.151,326.335"/>
   <polyline stroke-width="0.5" stroke="#000000" stroke-linecap="square" fill="none" stroke-linejoin="miter" points="385.151,326.335 391.151,320.335"/>
   <polyline stroke-width="0.5" stroke="#000000" stroke-linecap="square" fill="none" stroke-linejoin="miter" points="402.422,303.063 408.422,309.063"/>
   <polyline stroke-width="0.5" stroke="#000000" stroke-linecap="square" fill="none" stroke-linejoin="miter" points="402.422,309.063 408.422,303.063"/>
   <polyline stroke-width="0.5" stroke="#000000" stroke-linecap="square" fill="none" stroke-linejoin="miter" points="416.432,283.055 422.432,289.055"/>
   <polyline stroke-width="0.5" stroke="#000000" stroke-linecap="square" fill="none" stroke-linejoin="miter" points="416.432,289.055 422.432,283.055"/>
   <polyline stroke-width="0.5" stroke="#000000" stroke-linecap="square" fill="none" stroke-linejoin="miter" points="426.755,260.918 432.755,266.918"/>
   <polyline stroke-width="0.5" stroke="#000000" stroke-linecap="square" fill="none" stroke-linejoin="miter" points="426.755,266.918 432.755,260.918"/>
   <polyline stroke-width="0.5" stroke="#000000" stroke-linecap="square" fill="none" stroke-linejoin="miter" points="433.077,237.325 439.077,243.325"/>
   <polyline stroke-width="0.5" stroke="#000000" stroke-linecap="square" fill="none" stroke-linejoin="miter" points="433.077,243.325 439.077,237.325"/>
   <polyline stroke-width="0.5" stroke="#000000" stroke-linecap="square" fill="none" stroke-linejoin="miter" points="435.206,212.992 441.206,218.992"/>
   <polyline stroke-width="0.5" stroke="#000000" stroke-linecap="square" fill="none" stroke-linejoin="miter" points="435.206,218.992 441.206,212.992"/>
  </g>
  <clipPath id="cp00576432">
   <polygon points="0,432 576,432 576,0 0,0"/>
  </clipPath>
  <g clip-path="url(#cp00576432)">
   <polygon shape-rendering="crispEdges" fill="#ffffff" points="167.906,426.507 428.254,426.507 428.254,410.728 167.906,410.728"/>
   <text font-weight="normal" transform="translate(194.913,422.618) rotate(-0,-0,-4)" font-size="9" font-family="FreeSans" xml:space="preserve" font-style="normal">
    <tspan x="0 6 8 13 18 23 25 29 31 37 40 45 50 " fill="rgb(0,0,0)" y="-0">Plane's Trace</tspan>
   </text>
   <text font-weight="normal" transform="translate(281.696,423.618) rotate(-0,-0,-5)" font-size="9" font-family="FreeSans" xml:space="preserve" font-style="normal">
    <tspan x="0 6 11 15 17 19 24 29 32 34 40 45 49 " fill="rgb(0,0,0)" y="-2">Daylight Env.</tspan>
   </text>
   <text font-weight="normal" transform="translate(368.478,423.118) rotate(-0,-0,-4.5)" font-size="9" font-family="FreeSans" xml:space="preserve" font-style="normal">
    <tspan x="0 7 10 15 20 23 25 31 33 36 41 " fill="rgb(0,0,0)" y="-1">Great Circ.</tspan>
   </text>
   <polyline stroke-width="0.5" stroke="#000000" stroke-linecap="butt" fill="none" stroke-linejoin="round" points="171.11,418.618 191.709,418.618"/>
   <polyline stroke-width="0.5" stroke="#000000" stroke-linecap="round" fill="none" stroke-linejoin="round" points="184.41,418.618 183.837,420.381 182.337,421.471 180.483,421.471 178.983,420.381 178.41,418.618 178.983,416.854 180.483,415.765 182.337,415.765 183.837,416.854 184.41,418.618"/>
   <polyline stroke-width="0.5" stroke="#000000" stroke-linecap="butt" fill="none" stroke-linejoin="round" points="257.893,418.618 278.491,418.618"/>
   <polyline stroke-width="0.5" stroke="#000000" stroke-linecap="round" fill="none" stroke-linejoin="round" points="268.192,415.618 265.192,421.618 271.192,421.618 268.192,415.618"/>
   <polyline stroke-width="0.5" stroke="#000000" stroke-linecap="butt" fill="none" stroke-linejoin="round" points="344.675,418.618 365.274,418.618"/>
   <polyline stroke-width="0.5" stroke="#000000" stroke-linecap="square" fill="none" stroke-linejoin="miter" points="351.975,415.618 357.975,421.618"/>
   <polyline stroke-width="0.5" stroke="#000000" stroke-linecap="square" fill="none" stroke-linejoin="miter" points="351.975,421.618 357.975,415.618"/>
  </g>
 </g>
</svg>
