<?xml version='1.0' encoding='UTF-8' standalone='no'?>
<svg width="576pt" xmlns:xlink="http://www.w3.org/1999/xlink" height="432pt" viewBox="0 0 576 432" xmlns="http://www.w3.org/2000/svg">
 <title>gl2ps_renderer figure</title>
 <desc>
Creator: GL2PS 1.4.0, (C) 1999-2017 C. Geuzaine
For: Octave
CreationDate: Tue Mar 29 07:27:18 2022
</desc>
 <defs/>
 <polygon fill="#ffffff" points="0,0 576,0 576,432 0,432"/>
 <g>
  <polygon shape-rendering="crispEdges" fill="#ffffff" points="0,432 576,432 576,0 0,0"/>
  <clipPath id="cp00576432">
   <polygon points="0,432 576,432 576,0 0,0"/>
  </clipPath>
  <g clip-path="url(#cp00576432)">
   <polyline stroke-linejoin="round" fill="none" stroke-linecap="butt" points="297.734,40.9915 297.734,32.4" stroke="#000000" stroke-width="0.5"/>
   <text transform="translate(294.234,32.4) rotate(-0,3.5,0)" font-size="10" font-family="FreeSans" font-weight="normal" font-style="normal" xml:space="preserve">
    <tspan fill="rgb(0,0,0)" x="0 " y="-0">N</tspan>
   </text>
   <polyline stroke-linejoin="round" fill="none" stroke-linecap="butt" points="469.565,212.822 466.803,182.141 458.608,152.445 445.242,124.69 427.135,99.7682 404.869,78.4796 379.159,61.5089 350.833,49.4015 320.8,42.5466 290.025,41.1646 259.498,45.2997 230.2,54.8192 203.073,69.4169 178.988,88.6239 158.72,111.823 142.92,138.268 132.096,167.109 126.595,197.419 126.595,228.225 132.096,258.536 142.92,287.377 158.72,313.822 178.988,337.021 203.073,356.228 230.2,370.825 259.498,380.345 290.025,384.48 320.8,383.098 350.833,376.243 379.159,364.136 404.869,347.165 427.135,325.876 445.242,300.954 458.608,273.199 466.803,243.504 469.565,212.822" stroke="#000000" stroke-width="0.5"/>
   <polyline stroke-linejoin="miter" fill="none" stroke-linecap="square" points="294.734,212.822 300.734,212.822" stroke="#000000" stroke-width="0.5"/>
   <polyline stroke-linejoin="miter" fill="none" stroke-linecap="square" points="297.734,209.822 297.734,215.822" stroke="#000000" stroke-width="0.5"/>
   <polyline stroke-linejoin="round" fill="none" stroke-linecap="butt" points="297.734,212.822 308.276,228.412 311.658,235.57 313.791,241.345 315.235,246.406 316.202,251.01 316.799,255.288 317.089,259.316 317.108,263.143 316.882,266.798 316.426,270.305 315.751,273.677 314.864,276.924 313.77,280.05 312.47,283.058 310.965,285.947 309.257,288.716 307.344,291.359 305.226,293.869 302.902,296.239 300.374,298.459 297.641,300.517 294.726,302.389 291.642,304.062 288.397,305.527 284.999,306.776 281.459,307.799 277.787,308.588 273.997,309.132 270.105,309.424 266.127,309.455 262.084,309.22 257.995,308.714 253.883,307.934 249.771,306.881 245.684,305.556 241.646,303.965 237.683,302.116 233.818,300.019 230.076,297.69 226.476,295.144 223.041,292.399 219.786,289.476 216.727,286.398 213.877,283.187 213.877,283.187 211.209,279.822 208.709,276.275 206.396,272.563 204.29,268.702 202.407,264.716 200.763,260.625 199.37,256.455 198.237,252.231 197.371,247.979 196.776,243.724 196.452,239.492 196.398,235.307 196.61,231.192 197.081,227.169 197.802,223.257 198.766,219.475 199.96,215.837 201.374,212.358 202.997,209.049 204.817,205.919 206.823,202.978 209.006,200.232 211.356,197.686 213.857,195.352 216.482,193.247 219.219,191.371 222.06,189.721 224.995,188.296 228.018,187.094 231.125,186.114 234.313,185.357 237.581,184.821 240.932,184.512 244.37,184.433 247.903,184.593 251.542,185.005 255.307,185.688 259.224,186.673 263.333,188.004 267.699,189.756 272.433,192.056 277.749,195.16 284.212,199.734 297.734,212.822" stroke="#ff0000" stroke-width="0.5"/>
   <polyline stroke-linejoin="round" fill="none" stroke-linecap="butt" points="187.283,81.1923 200.605,87.7028 212.745,94.1735 223.872,100.58 234.129,106.912 243.633,113.164 252.484,119.339 260.768,125.443 268.556,131.485 275.91,137.476 282.884,143.429 289.524,149.356 295.87,155.272 301.957,161.193 307.818,167.134 313.479,173.112 318.966,179.144 324.3,185.25 329.501,191.448 334.588,197.762 339.576,204.212 344.48,210.825 349.312,217.629 354.086,224.652 358.811,231.929 363.495,239.497 368.146,247.398 372.769,255.681 377.367,264.4 381.94,273.618 386.484,283.407 390.991,293.853 395.445,305.053 399.822,317.123 404.087,330.202 408.185,344.452" stroke="#0000ff" stroke-width="0.5"/>
  </g>
 </g>
</svg>
