<?xml version='1.0' encoding='UTF-8' standalone='no'?>
<svg viewBox="0 0 576 432" height="432pt" width="576pt" xmlns="http://www.w3.org/2000/svg" xmlns:xlink="http://www.w3.org/1999/xlink">
 <title>gl2ps_renderer figure</title>
 <desc>
Creator: GL2PS 1.4.0, (C) 1999-2017 C. Geuzaine
For: Octave
CreationDate: Tue Mar 29 07:17:21 2022
</desc>
 <defs/>
 <polygon fill="#ffffff" points="0,0 576,0 576,432 0,432"/>
 <g>
  <polygon fill="#ffffff" points="0,432 576,432 576,0 0,0" shape-rendering="crispEdges"/>
  <clipPath id="cp00576432">
   <polygon points="0,432 576,432 576,0 0,0"/>
  </clipPath>
  <g clip-path="url(#cp00576432)">
   <polygon fill="#ffffff" points="129.929,384.143 466.231,384.143 466.231,47.8417 129.929,47.8417" shape-rendering="crispEdges"/>
   <polyline stroke-linecap="butt" stroke-dasharray="16,0" stroke="#262626" fill="none" points="157.954,384.143 157.954,47.8417" stroke-width="0.5" stroke-opacity="0.15" stroke-linejoin="miter"/>
   <polyline stroke-linecap="butt" stroke-dasharray="16,0" stroke="#262626" fill="none" points="185.98,384.143 185.98,47.8417" stroke-width="0.5" stroke-opacity="0.15" stroke-linejoin="miter"/>
   <polyline stroke-linecap="butt" stroke-dasharray="16,0" stroke="#262626" fill="none" points="214.005,384.143 214.005,47.8417" stroke-width="0.5" stroke-opacity="0.15" stroke-linejoin="miter"/>
   <polyline stroke-linecap="butt" stroke-dasharray="16,0" stroke="#262626" fill="none" points="242.03,384.143 242.03,47.8417" stroke-width="0.5" stroke-opacity="0.15" stroke-linejoin="miter"/>
   <polyline stroke-linecap="butt" stroke-dasharray="16,0" stroke="#262626" fill="none" points="270.055,384.143 270.055,47.8417" stroke-width="0.5" stroke-opacity="0.15" stroke-linejoin="miter"/>
   <polyline stroke-linecap="butt" stroke-dasharray="16,0" stroke="#262626" fill="none" points="298.08,384.143 298.08,47.8417" stroke-width="0.5" stroke-opacity="0.15" stroke-linejoin="miter"/>
   <polyline stroke-linecap="butt" stroke-dasharray="16,0" stroke="#262626" fill="none" points="326.105,384.143 326.105,47.8417" stroke-width="0.5" stroke-opacity="0.15" stroke-linejoin="miter"/>
   <polyline stroke-linecap="butt" stroke-dasharray="16,0" stroke="#262626" fill="none" points="354.13,384.143 354.13,47.8417" stroke-width="0.5" stroke-opacity="0.15" stroke-linejoin="miter"/>
   <polyline stroke-linecap="butt" stroke-dasharray="16,0" stroke="#262626" fill="none" points="382.155,384.143 382.155,47.8417" stroke-width="0.5" stroke-opacity="0.15" stroke-linejoin="miter"/>
   <polyline stroke-linecap="butt" stroke-dasharray="16,0" stroke="#262626" fill="none" points="410.18,384.143 410.18,47.8417" stroke-width="0.5" stroke-opacity="0.15" stroke-linejoin="miter"/>
   <polyline stroke-linecap="butt" stroke-dasharray="16,0" stroke="#262626" fill="none" points="438.206,384.143 438.206,47.8417" stroke-width="0.5" stroke-opacity="0.15" stroke-linejoin="miter"/>
   <polyline stroke-linecap="butt" stroke="#262626" fill="none" points="129.929,215.992 466.231,215.992" stroke-width="0.5" stroke-linejoin="miter"/>
   <polyline stroke-linecap="butt" stroke="#262626" fill="none" points="157.954,215.992 157.954,211.524" stroke-width="0.5" stroke-linejoin="miter"/>
   <polyline stroke-linecap="butt" stroke="#262626" fill="none" points="185.98,215.992 185.98,211.524" stroke-width="0.5" stroke-linejoin="miter"/>
   <polyline stroke-linecap="butt" stroke="#262626" fill="none" points="214.005,215.992 214.005,211.524" stroke-width="0.5" stroke-linejoin="miter"/>
   <polyline stroke-linecap="butt" stroke="#262626" fill="none" points="242.03,215.992 242.03,211.524" stroke-width="0.5" stroke-linejoin="miter"/>
   <polyline stroke-linecap="butt" stroke="#262626" fill="none" points="270.055,215.992 270.055,211.524" stroke-width="0.5" stroke-linejoin="miter"/>
   <polyline stroke-linecap="butt" stroke="#262626" fill="none" points="298.08,215.992 298.08,211.524" stroke-width="0.5" stroke-linejoin="miter"/>
   <polyline stroke-linecap="butt" stroke="#262626" fill="none" points="326.105,215.992 326.105,211.524" stroke-width="0.5" stroke-linejoin="miter"/>
   <polyline stroke-linecap="butt" stroke="#262626" fill="none" points="354.13,215.992 354.13,211.524" stroke-width="0.5" stroke-linejoin="miter"/>
   <polyline stroke-linecap="butt" stroke="#262626" fill="none" points="382.155,215.992 382.155,211.524" stroke-width="0.5" stroke-linejoin="miter"/>
   <polyline stroke-linecap="butt" stroke="#262626" fill="none" points="410.18,215.992 410.18,211.524" stroke-width="0.5" stroke-linejoin="miter"/>
   <polyline stroke-linecap="butt" stroke="#262626" fill="none" points="438.206,215.992 438.206,211.524" stroke-width="0.5" stroke-linejoin="miter"/>
   <text font-style="normal" transform="translate(153.454,231.499) rotate(-0,4.5,-8)" font-family="FreeSans" font-size="10" font-weight="normal" xml:space="preserve">
    <tspan y="-0" x="0 3 " fill="rgb(38,38,38)">-1</tspan>
   </text>
   <text font-style="normal" transform="translate(176.98,231.499) rotate(-0,9,-8)" font-family="FreeSans" font-size="10" font-weight="normal" xml:space="preserve">
    <tspan y="-0" x="0 3 9 12 " fill="rgb(38,38,38)">-0.8</tspan>
   </text>
   <text font-style="normal" transform="translate(205.005,231.499) rotate(-0,9,-8)" font-family="FreeSans" font-size="10" font-weight="normal" xml:space="preserve">
    <tspan y="-0" x="0 3 9 12 " fill="rgb(38,38,38)">-0.6</tspan>
   </text>
   <text font-style="normal" transform="translate(233.03,231.499) rotate(-0,9,-8)" font-family="FreeSans" font-size="10" font-weight="normal" xml:space="preserve">
    <tspan y="-0" x="0 3 9 12 " fill="rgb(38,38,38)">-0.4</tspan>
   </text>
   <text font-style="normal" transform="translate(261.055,231.499) rotate(-0,9,-8)" font-family="FreeSans" font-size="10" font-weight="normal" xml:space="preserve">
    <tspan y="-0" x="0 3 9 12 " fill="rgb(38,38,38)">-0.2</tspan>
   </text>
   <text font-style="normal" transform="translate(318.605,231.499) rotate(-0,7.5,-8)" font-family="FreeSans" font-size="10" font-weight="normal" xml:space="preserve">
    <tspan y="-0" x="0 6 9 " fill="rgb(38,38,38)">0.2</tspan>
   </text>
   <text font-style="normal" transform="translate(346.63,231.499) rotate(-0,7.5,-8)" font-family="FreeSans" font-size="10" font-weight="normal" xml:space="preserve">
    <tspan y="-0" x="0 6 9 " fill="rgb(38,38,38)">0.4</tspan>
   </text>
   <text font-style="normal" transform="translate(374.655,231.499) rotate(-0,7.5,-8)" font-family="FreeSans" font-size="10" font-weight="normal" xml:space="preserve">
    <tspan y="-0" x="0 6 9 " fill="rgb(38,38,38)">0.6</tspan>
   </text>
   <text font-style="normal" transform="translate(402.68,231.499) rotate(-0,7.5,-8)" font-family="FreeSans" font-size="10" font-weight="normal" xml:space="preserve">
    <tspan y="-0" x="0 6 9 " fill="rgb(38,38,38)">0.8</tspan>
   </text>
   <text font-style="normal" transform="translate(435.206,231.499) rotate(-0,3,-8)" font-family="FreeSans" font-size="10" font-weight="normal" xml:space="preserve">
    <tspan y="-0" x="0 " fill="rgb(38,38,38)">1</tspan>
   </text>
   <polyline stroke-linecap="butt" stroke-dasharray="16,0" stroke="#262626" fill="none" points="129.929,356.118 466.231,356.118" stroke-width="0.5" stroke-opacity="0.15" stroke-linejoin="miter"/>
   <polyline stroke-linecap="butt" stroke-dasharray="16,0" stroke="#262626" fill="none" points="129.929,328.093 466.231,328.093" stroke-width="0.5" stroke-opacity="0.15" stroke-linejoin="miter"/>
   <polyline stroke-linecap="butt" stroke-dasharray="16,0" stroke="#262626" fill="none" points="129.929,300.068 466.231,300.068" stroke-width="0.5" stroke-opacity="0.15" stroke-linejoin="miter"/>
   <polyline stroke-linecap="butt" stroke-dasharray="16,0" stroke="#262626" fill="none" points="129.929,272.043 466.231,272.043" stroke-width="0.5" stroke-opacity="0.15" stroke-linejoin="miter"/>
   <polyline stroke-linecap="butt" stroke-dasharray="16,0" stroke="#262626" fill="none" points="129.929,244.017 466.231,244.017" stroke-width="0.5" stroke-opacity="0.15" stroke-linejoin="miter"/>
   <polyline stroke-linecap="butt" stroke-dasharray="16,0" stroke="#262626" fill="none" points="129.929,215.992 466.231,215.992" stroke-width="0.5" stroke-opacity="0.15" stroke-linejoin="miter"/>
   <polyline stroke-linecap="butt" stroke-dasharray="16,0" stroke="#262626" fill="none" points="129.929,187.967 466.231,187.967" stroke-width="0.5" stroke-opacity="0.15" stroke-linejoin="miter"/>
   <polyline stroke-linecap="butt" stroke-dasharray="16,0" stroke="#262626" fill="none" points="129.929,159.942 466.231,159.942" stroke-width="0.5" stroke-opacity="0.15" stroke-linejoin="miter"/>
   <polyline stroke-linecap="butt" stroke-dasharray="16,0" stroke="#262626" fill="none" points="129.929,131.917 466.231,131.917" stroke-width="0.5" stroke-opacity="0.15" stroke-linejoin="miter"/>
   <polyline stroke-linecap="butt" stroke-dasharray="16,0" stroke="#262626" fill="none" points="129.929,103.892 466.231,103.892" stroke-width="0.5" stroke-opacity="0.15" stroke-linejoin="miter"/>
   <polyline stroke-linecap="butt" stroke-dasharray="16,0" stroke="#262626" fill="none" points="129.929,75.8668 466.231,75.8668" stroke-width="0.5" stroke-opacity="0.15" stroke-linejoin="miter"/>
   <polyline stroke-linecap="butt" stroke="#262626" fill="none" points="298.08,384.143 298.08,47.8417" stroke-width="0.5" stroke-linejoin="miter"/>
   <polyline stroke-linecap="butt" stroke="#262626" fill="none" points="298.08,356.118 302.548,356.118" stroke-width="0.5" stroke-linejoin="miter"/>
   <polyline stroke-linecap="butt" stroke="#262626" fill="none" points="298.08,328.093 302.548,328.093" stroke-width="0.5" stroke-linejoin="miter"/>
   <polyline stroke-linecap="butt" stroke="#262626" fill="none" points="298.08,300.068 302.548,300.068" stroke-width="0.5" stroke-linejoin="miter"/>
   <polyline stroke-linecap="butt" stroke="#262626" fill="none" points="298.08,272.043 302.548,272.043" stroke-width="0.5" stroke-linejoin="miter"/>
   <polyline stroke-linecap="butt" stroke="#262626" fill="none" points="298.08,244.017 302.548,244.017" stroke-width="0.5" stroke-linejoin="miter"/>
   <polyline stroke-linecap="butt" stroke="#262626" fill="none" points="298.08,215.992 302.548,215.992" stroke-width="0.5" stroke-linejoin="miter"/>
   <polyline stroke-linecap="butt" stroke="#262626" fill="none" points="298.08,187.967 302.548,187.967" stroke-width="0.5" stroke-linejoin="miter"/>
   <polyline stroke-linecap="butt" stroke="#262626" fill="none" points="298.08,159.942 302.548,159.942" stroke-width="0.5" stroke-linejoin="miter"/>
   <polyline stroke-linecap="butt" stroke="#262626" fill="none" points="298.08,131.917 302.548,131.917" stroke-width="0.5" stroke-linejoin="miter"/>
   <polyline stroke-linecap="butt" stroke="#262626" fill="none" points="298.08,103.892 302.548,103.892" stroke-width="0.5" stroke-linejoin="miter"/>
   <polyline stroke-linecap="butt" stroke="#262626" fill="none" points="298.08,75.8668 302.548,75.8668" stroke-width="0.5" stroke-linejoin="miter"/>
   <text font-style="normal" transform="translate(284.076,360.118) rotate(-0,9,-4)" font-family="FreeSans" font-size="10" font-weight="normal" xml:space="preserve">
    <tspan y="-0" x="0 3 " fill="rgb(38,38,38)">-1</tspan>
   </text>
   <text font-style="normal" transform="translate(275.076,332.093) rotate(-0,18,-4)" font-family="FreeSans" font-size="10" font-weight="normal" xml:space="preserve">
    <tspan y="-0" x="0 3 9 12 " fill="rgb(38,38,38)">-0.8</tspan>
   </text>
   <text font-style="normal" transform="translate(275.076,304.068) rotate(-0,18,-4)" font-family="FreeSans" font-size="10" font-weight="normal" xml:space="preserve">
    <tspan y="-0" x="0 3 9 12 " fill="rgb(38,38,38)">-0.6</tspan>
   </text>
   <text font-style="normal" transform="translate(275.076,276.043) rotate(-0,18,-4)" font-family="FreeSans" font-size="10" font-weight="normal" xml:space="preserve">
    <tspan y="-0" x="0 3 9 12 " fill="rgb(38,38,38)">-0.4</tspan>
   </text>
   <text font-style="normal" transform="translate(275.076,248.017) rotate(-0,18,-4)" font-family="FreeSans" font-size="10" font-weight="normal" xml:space="preserve">
    <tspan y="-0" x="0 3 9 12 " fill="rgb(38,38,38)">-0.2</tspan>
   </text>
   <text font-style="normal" transform="translate(278.076,191.967) rotate(-0,15,-4)" font-family="FreeSans" font-size="10" font-weight="normal" xml:space="preserve">
    <tspan y="-0" x="0 6 9 " fill="rgb(38,38,38)">0.2</tspan>
   </text>
   <text font-style="normal" transform="translate(278.076,163.942) rotate(-0,15,-4)" font-family="FreeSans" font-size="10" font-weight="normal" xml:space="preserve">
    <tspan y="-0" x="0 6 9 " fill="rgb(38,38,38)">0.4</tspan>
   </text>
   <text font-style="normal" transform="translate(278.076,135.917) rotate(-0,15,-4)" font-family="FreeSans" font-size="10" font-weight="normal" xml:space="preserve">
    <tspan y="-0" x="0 6 9 " fill="rgb(38,38,38)">0.6</tspan>
   </text>
   <text font-style="normal" transform="translate(278.076,107.892) rotate(-0,15,-4)" font-family="FreeSans" font-size="10" font-weight="normal" xml:space="preserve">
    <tspan y="-0" x="0 6 9 " fill="rgb(38,38,38)">0.8</tspan>
   </text>
   <text font-style="normal" transform="translate(287.076,79.8668) rotate(-0,6,-4)" font-family="FreeSans" font-size="10" font-weight="normal" xml:space="preserve">
    <tspan y="-0" x="0 " fill="rgb(38,38,38)">1</tspan>
   </text>
   <polyline stroke-linecap="butt" stroke="#000000" fill="none" points="388.151,108.65 379.82,129.709 371.635,147.631 363.638,163.226 355.808,177.073 348.096,189.595 340.439,201.111 332.761,211.869 324.981,222.068 317.007,231.874 308.735,241.43 300.041,250.863 290.78,260.292 280.769,269.833 269.776,279.602 257.499,289.717 243.53,300.301 227.302,311.473 208.009,323.335" stroke-width="0.5" stroke-linejoin="round"/>
   <polyline stroke-linecap="round" stroke="#000000" fill="none" points="391.151,108.65 390.578,110.413 389.078,111.503 387.224,111.503 385.724,110.413 385.151,108.65 385.724,106.887 387.224,105.797 389.078,105.797 390.578,106.887 391.151,108.65" stroke-width="0.5" stroke-linejoin="round"/>
   <polyline stroke-linecap="round" stroke="#000000" fill="none" points="382.82,129.709 382.247,131.473 380.747,132.563 378.893,132.563 377.393,131.473 376.82,129.709 377.393,127.946 378.893,126.856 380.747,126.856 382.247,127.946 382.82,129.709" stroke-width="0.5" stroke-linejoin="round"/>
   <polyline stroke-linecap="round" stroke="#000000" fill="none" points="374.635,147.631 374.062,149.394 372.562,150.484 370.708,150.484 369.208,149.394 368.635,147.631 369.208,145.867 370.708,144.778 372.562,144.778 374.062,145.867 374.635,147.631" stroke-width="0.5" stroke-linejoin="round"/>
   <polyline stroke-linecap="round" stroke="#000000" fill="none" points="366.638,163.226 366.065,164.989 364.565,166.079 362.711,166.079 361.211,164.989 360.638,163.226 361.211,161.463 362.711,160.373 364.565,160.373 366.065,161.463 366.638,163.226" stroke-width="0.5" stroke-linejoin="round"/>
   <polyline stroke-linecap="round" stroke="#000000" fill="none" points="358.808,177.073 358.235,178.836 356.735,179.926 354.881,179.926 353.381,178.836 352.808,177.073 353.381,175.31 354.881,174.22 356.735,174.22 358.235,175.31 358.808,177.073" stroke-width="0.5" stroke-linejoin="round"/>
   <polyline stroke-linecap="round" stroke="#000000" fill="none" points="351.096,189.595 350.523,191.358 349.023,192.448 347.169,192.448 345.669,191.358 345.096,189.595 345.669,187.832 347.169,186.742 349.023,186.742 350.523,187.832 351.096,189.595" stroke-width="0.5" stroke-linejoin="round"/>
   <polyline stroke-linecap="round" stroke="#000000" fill="none" points="343.439,201.111 342.866,202.874 341.366,203.964 339.512,203.964 338.012,202.874 337.439,201.111 338.012,199.347 339.512,198.257 341.366,198.257 342.866,199.347 343.439,201.111" stroke-width="0.5" stroke-linejoin="round"/>
   <polyline stroke-linecap="round" stroke="#000000" fill="none" points="335.761,211.869 335.188,213.632 333.688,214.722 331.834,214.722 330.334,213.632 329.761,211.869 330.334,210.105 331.834,209.015 333.688,209.015 335.188,210.105 335.761,211.869" stroke-width="0.5" stroke-linejoin="round"/>
   <polyline stroke-linecap="round" stroke="#000000" fill="none" points="327.981,222.068 327.408,223.831 325.908,224.921 324.054,224.921 322.554,223.831 321.981,222.068 322.554,220.305 324.054,219.215 325.908,219.215 327.408,220.305 327.981,222.068" stroke-width="0.5" stroke-linejoin="round"/>
   <polyline stroke-linecap="round" stroke="#000000" fill="none" points="320.007,231.874 319.434,233.638 317.934,234.727 316.08,234.727 314.58,233.638 314.007,231.874 314.58,230.111 316.08,229.021 317.934,229.021 319.434,230.111 320.007,231.874" stroke-width="0.5" stroke-linejoin="round"/>
   <polyline stroke-linecap="round" stroke="#000000" fill="none" points="311.735,241.43 311.162,243.193 309.662,244.283 307.808,244.283 306.308,243.193 305.735,241.43 306.308,239.667 307.808,238.577 309.662,238.577 311.162,239.667 311.735,241.43" stroke-width="0.5" stroke-linejoin="round"/>
   <polyline stroke-linecap="round" stroke="#000000" fill="none" points="303.041,250.863 302.468,252.626 300.968,253.716 299.114,253.716 297.614,252.626 297.041,250.863 297.614,249.099 299.114,248.009 300.968,248.009 302.468,249.099 303.041,250.863" stroke-width="0.5" stroke-linejoin="round"/>
   <polyline stroke-linecap="round" stroke="#000000" fill="none" points="293.78,260.292 293.207,262.055 291.707,263.145 289.853,263.145 288.353,262.055 287.78,260.292 288.353,258.528 289.853,257.439 291.707,257.439 293.207,258.528 293.78,260.292" stroke-width="0.5" stroke-linejoin="round"/>
   <polyline stroke-linecap="round" stroke="#000000" fill="none" points="283.769,269.833 283.196,271.596 281.696,272.686 279.842,272.686 278.342,271.596 277.769,269.833 278.342,268.069 279.842,266.98 281.696,266.98 283.196,268.069 283.769,269.833" stroke-width="0.5" stroke-linejoin="round"/>
   <polyline stroke-linecap="round" stroke="#000000" fill="none" points="272.776,279.602 272.204,281.365 270.704,282.455 268.849,282.455 267.349,281.365 266.776,279.602 267.349,277.838 268.849,276.749 270.704,276.749 272.204,277.838 272.776,279.602" stroke-width="0.5" stroke-linejoin="round"/>
   <polyline stroke-linecap="round" stroke="#000000" fill="none" points="260.499,289.717 259.927,291.481 258.427,292.57 256.572,292.57 255.072,291.481 254.499,289.717 255.072,287.954 256.572,286.864 258.427,286.864 259.927,287.954 260.499,289.717" stroke-width="0.5" stroke-linejoin="round"/>
   <polyline stroke-linecap="round" stroke="#000000" fill="none" points="246.53,300.301 245.957,302.065 244.457,303.154 242.603,303.154 241.103,302.065 240.53,300.301 241.103,298.538 242.603,297.448 244.457,297.448 245.957,298.538 246.53,300.301" stroke-width="0.5" stroke-linejoin="round"/>
   <polyline stroke-linecap="round" stroke="#000000" fill="none" points="230.302,311.473 229.729,313.237 228.229,314.326 226.375,314.326 224.875,313.237 224.302,311.473 224.875,309.71 226.375,308.62 228.229,308.62 229.729,309.71 230.302,311.473" stroke-width="0.5" stroke-linejoin="round"/>
   <polyline stroke-linecap="round" stroke="#000000" fill="none" points="211.009,323.335 210.436,325.098 208.936,326.188 207.082,326.188 205.582,325.098 205.009,323.335 205.582,321.571 207.082,320.482 208.936,320.482 210.436,321.571 211.009,323.335" stroke-width="0.5" stroke-linejoin="round"/>
   <polyline stroke-linecap="butt" stroke="#000000" fill="none" points="298.08,215.992 290.164,224.348 281.136,231.74 270.839,237.918 259.026,242.322 245.424,243.783 230.036,239.898 214.458,225.935 206.352,195.275 222.918,152.924 261.749,129.255 293.351,131.914 309.807,144.831 316.305,159.31 317.228,172.959 314.942,185.358 310.646,196.572 304.934,206.746 298.08,215.992" stroke-width="0.5" stroke-linejoin="round"/>
   <polyline stroke-linecap="round" stroke="#000000" fill="none" points="298.08,212.992 295.08,218.992 301.08,218.992 298.08,212.992" stroke-width="0.5" stroke-linejoin="round"/>
   <polyline stroke-linecap="round" stroke="#000000" fill="none" points="290.164,221.348 287.164,227.348 293.164,227.348 290.164,221.348" stroke-width="0.5" stroke-linejoin="round"/>
   <polyline stroke-linecap="round" stroke="#000000" fill="none" points="281.136,228.74 278.136,234.74 284.136,234.74 281.136,228.74" stroke-width="0.5" stroke-linejoin="round"/>
   <polyline stroke-linecap="round" stroke="#000000" fill="none" points="270.839,234.918 267.839,240.918 273.839,240.918 270.839,234.918" stroke-width="0.5" stroke-linejoin="round"/>
   <polyline stroke-linecap="round" stroke="#000000" fill="none" points="259.026,239.322 256.026,245.322 262.026,245.322 259.026,239.322" stroke-width="0.5" stroke-linejoin="round"/>
   <polyline stroke-linecap="round" stroke="#000000" fill="none" points="245.424,240.783 242.424,246.783 248.424,246.783 245.424,240.783" stroke-width="0.5" stroke-linejoin="round"/>
   <polyline stroke-linecap="round" stroke="#000000" fill="none" points="230.036,236.898 227.036,242.898 233.036,242.898 230.036,236.898" stroke-width="0.5" stroke-linejoin="round"/>
   <polyline stroke-linecap="round" stroke="#000000" fill="none" points="214.458,222.935 211.458,228.935 217.458,228.935 214.458,222.935" stroke-width="0.5" stroke-linejoin="round"/>
   <polyline stroke-linecap="round" stroke="#000000" fill="none" points="206.352,192.275 203.352,198.275 209.352,198.275 206.352,192.275" stroke-width="0.5" stroke-linejoin="round"/>
   <polyline stroke-linecap="round" stroke="#000000" fill="none" points="222.918,149.924 219.918,155.924 225.918,155.924 222.918,149.924" stroke-width="0.5" stroke-linejoin="round"/>
   <polyline stroke-linecap="round" stroke="#000000" fill="none" points="261.749,126.255 258.749,132.255 264.749,132.255 261.749,126.255" stroke-width="0.5" stroke-linejoin="round"/>
   <polyline stroke-linecap="round" stroke="#000000" fill="none" points="293.351,128.914 290.351,134.914 296.351,134.914 293.351,128.914" stroke-width="0.5" stroke-linejoin="round"/>
   <polyline stroke-linecap="round" stroke="#000000" fill="none" points="309.807,141.831 306.807,147.831 312.807,147.831 309.807,141.831" stroke-width="0.5" stroke-linejoin="round"/>
   <polyline stroke-linecap="round" stroke="#000000" fill="none" points="316.305,156.31 313.305,162.31 319.305,162.31 316.305,156.31" stroke-width="0.5" stroke-linejoin="round"/>
   <polyline stroke-linecap="round" stroke="#000000" fill="none" points="317.228,169.959 314.228,175.959 320.228,175.959 317.228,169.959" stroke-width="0.5" stroke-linejoin="round"/>
   <polyline stroke-linecap="round" stroke="#000000" fill="none" points="314.942,182.358 311.942,188.358 317.942,188.358 314.942,182.358" stroke-width="0.5" stroke-linejoin="round"/>
   <polyline stroke-linecap="round" stroke="#000000" fill="none" points="310.646,193.572 307.646,199.572 313.646,199.572 310.646,193.572" stroke-width="0.5" stroke-linejoin="round"/>
   <polyline stroke-linecap="round" stroke="#000000" fill="none" points="304.934,203.746 301.934,209.746 307.934,209.746 304.934,203.746" stroke-width="0.5" stroke-linejoin="round"/>
   <polyline stroke-linecap="round" stroke="#000000" fill="none" points="298.08,212.992 295.08,218.992 301.08,218.992 298.08,212.992" stroke-width="0.5" stroke-linejoin="round"/>
   <polyline stroke-linecap="butt" stroke="#000000" fill="none" points="438.206,215.992 436.077,191.66 429.755,168.067 419.432,145.93 405.422,125.921 388.151,108.65 368.143,94.64 346.006,84.3174 322.413,77.9956 298.08,75.8668 273.747,77.9956 250.154,84.3174 228.017,94.64 208.009,108.65 190.738,125.921 176.728,145.93 166.405,168.067 160.083,191.66 157.954,215.992 160.083,240.325 166.405,263.918 176.728,286.055 190.738,306.063 208.009,323.335 228.017,337.345 250.154,347.667 273.747,353.989 298.08,356.118 322.413,353.989 346.006,347.667 368.143,337.345 388.151,323.335 405.422,306.063 419.432,286.055 429.755,263.918 436.077,240.325 438.206,215.992" stroke-width="0.5" stroke-linejoin="round"/>
   <polyline stroke-linecap="square" stroke="#000000" fill="none" points="435.206,212.992 441.206,218.992" stroke-width="0.5" stroke-linejoin="miter"/>
   <polyline stroke-linecap="square" stroke="#000000" fill="none" points="435.206,218.992 441.206,212.992" stroke-width="0.5" stroke-linejoin="miter"/>
   <polyline stroke-linecap="square" stroke="#000000" fill="none" points="433.077,188.66 439.077,194.66" stroke-width="0.5" stroke-linejoin="miter"/>
   <polyline stroke-linecap="square" stroke="#000000" fill="none" points="433.077,194.66 439.077,188.66" stroke-width="0.5" stroke-linejoin="miter"/>
   <polyline stroke-linecap="square" stroke="#000000" fill="none" points="426.755,165.067 432.755,171.067" stroke-width="0.5" stroke-linejoin="miter"/>
   <polyline stroke-linecap="square" stroke="#000000" fill="none" points="426.755,171.067 432.755,165.067" stroke-width="0.5" stroke-linejoin="miter"/>
   <polyline stroke-linecap="square" stroke="#000000" fill="none" points="416.432,142.93 422.432,148.93" stroke-width="0.5" stroke-linejoin="miter"/>
   <polyline stroke-linecap="square" stroke="#000000" fill="none" points="416.432,148.93 422.432,142.93" stroke-width="0.5" stroke-linejoin="miter"/>
   <polyline stroke-linecap="square" stroke="#000000" fill="none" points="402.422,122.921 408.422,128.921" stroke-width="0.5" stroke-linejoin="miter"/>
   <polyline stroke-linecap="square" stroke="#000000" fill="none" points="402.422,128.921 408.422,122.921" stroke-width="0.5" stroke-linejoin="miter"/>
   <polyline stroke-linecap="square" stroke="#000000" fill="none" points="385.151,105.65 391.151,111.65" stroke-width="0.5" stroke-linejoin="miter"/>
   <polyline stroke-linecap="square" stroke="#000000" fill="none" points="385.151,111.65 391.151,105.65" stroke-width="0.5" stroke-linejoin="miter"/>
   <polyline stroke-linecap="square" stroke="#000000" fill="none" points="365.143,91.64 371.143,97.64" stroke-width="0.5" stroke-linejoin="miter"/>
   <polyline stroke-linecap="square" stroke="#000000" fill="none" points="365.143,97.64 371.143,91.64" stroke-width="0.5" stroke-linejoin="miter"/>
   <polyline stroke-linecap="square" stroke="#000000" fill="none" points="343.006,81.3174 349.006,87.3174" stroke-width="0.5" stroke-linejoin="miter"/>
   <polyline stroke-linecap="square" stroke="#000000" fill="none" points="343.006,87.3174 349.006,81.3174" stroke-width="0.5" stroke-linejoin="miter"/>
   <polyline stroke-linecap="square" stroke="#000000" fill="none" points="319.413,74.9956 325.413,80.9956" stroke-width="0.5" stroke-linejoin="miter"/>
   <polyline stroke-linecap="square" stroke="#000000" fill="none" points="319.413,80.9956 325.413,74.9956" stroke-width="0.5" stroke-linejoin="miter"/>
   <polyline stroke-linecap="square" stroke="#000000" fill="none" points="295.08,72.8668 301.08,78.8668" stroke-width="0.5" stroke-linejoin="miter"/>
   <polyline stroke-linecap="square" stroke="#000000" fill="none" points="295.08,78.8668 301.08,72.8668" stroke-width="0.5" stroke-linejoin="miter"/>
   <polyline stroke-linecap="square" stroke="#000000" fill="none" points="270.747,74.9956 276.747,80.9956" stroke-width="0.5" stroke-linejoin="miter"/>
   <polyline stroke-linecap="square" stroke="#000000" fill="none" points="270.747,80.9956 276.747,74.9956" stroke-width="0.5" stroke-linejoin="miter"/>
   <polyline stroke-linecap="square" stroke="#000000" fill="none" points="247.154,81.3174 253.154,87.3174" stroke-width="0.5" stroke-linejoin="miter"/>
   <polyline stroke-linecap="square" stroke="#000000" fill="none" points="247.154,87.3174 253.154,81.3174" stroke-width="0.5" stroke-linejoin="miter"/>
   <polyline stroke-linecap="square" stroke="#000000" fill="none" points="225.017,91.64 231.017,97.64" stroke-width="0.5" stroke-linejoin="miter"/>
   <polyline stroke-linecap="square" stroke="#000000" fill="none" points="225.017,97.64 231.017,91.64" stroke-width="0.5" stroke-linejoin="miter"/>
   <polyline stroke-linecap="square" stroke="#000000" fill="none" points="205.009,105.65 211.009,111.65" stroke-width="0.5" stroke-linejoin="miter"/>
   <polyline stroke-linecap="square" stroke="#000000" fill="none" points="205.009,111.65 211.009,105.65" stroke-width="0.5" stroke-linejoin="miter"/>
   <polyline stroke-linecap="square" stroke="#000000" fill="none" points="187.738,122.921 193.738,128.921" stroke-width="0.5" stroke-linejoin="miter"/>
   <polyline stroke-linecap="square" stroke="#000000" fill="none" points="187.738,128.921 193.738,122.921" stroke-width="0.5" stroke-linejoin="miter"/>
   <polyline stroke-linecap="square" stroke="#000000" fill="none" points="173.728,142.93 179.728,148.93" stroke-width="0.5" stroke-linejoin="miter"/>
   <polyline stroke-linecap="square" stroke="#000000" fill="none" points="173.728,148.93 179.728,142.93" stroke-width="0.5" stroke-linejoin="miter"/>
   <polyline stroke-linecap="square" stroke="#000000" fill="none" points="163.405,165.067 169.405,171.067" stroke-width="0.5" stroke-linejoin="miter"/>
   <polyline stroke-linecap="square" stroke="#000000" fill="none" points="163.405,171.067 169.405,165.067" stroke-width="0.5" stroke-linejoin="miter"/>
   <polyline stroke-linecap="square" stroke="#000000" fill="none" points="157.083,188.66 163.083,194.66" stroke-width="0.5" stroke-linejoin="miter"/>
   <polyline stroke-linecap="square" stroke="#000000" fill="none" points="157.083,194.66 163.083,188.66" stroke-width="0.5" stroke-linejoin="miter"/>
   <polyline stroke-linecap="square" stroke="#000000" fill="none" points="154.954,212.992 160.954,218.992" stroke-width="0.5" stroke-linejoin="miter"/>
   <polyline stroke-linecap="square" stroke="#000000" fill="none" points="154.954,218.992 160.954,212.992" stroke-width="0.5" stroke-linejoin="miter"/>
   <polyline stroke-linecap="square" stroke="#000000" fill="none" points="157.083,237.325 163.083,243.325" stroke-width="0.5" stroke-linejoin="miter"/>
   <polyline stroke-linecap="square" stroke="#000000" fill="none" points="157.083,243.325 163.083,237.325" stroke-width="0.5" stroke-linejoin="miter"/>
   <polyline stroke-linecap="square" stroke="#000000" fill="none" points="163.405,260.918 169.405,266.918" stroke-width="0.5" stroke-linejoin="miter"/>
   <polyline stroke-linecap="square" stroke="#000000" fill="none" points="163.405,266.918 169.405,260.918" stroke-width="0.5" stroke-linejoin="miter"/>
   <polyline stroke-linecap="square" stroke="#000000" fill="none" points="173.728,283.055 179.728,289.055" stroke-width="0.5" stroke-linejoin="miter"/>
   <polyline stroke-linecap="square" stroke="#000000" fill="none" points="173.728,289.055 179.728,283.055" stroke-width="0.5" stroke-linejoin="miter"/>
   <polyline stroke-linecap="square" stroke="#000000" fill="none" points="187.738,303.063 193.738,309.063" stroke-width="0.5" stroke-linejoin="miter"/>
   <polyline stroke-linecap="square" stroke="#000000" fill="none" points="187.738,309.063 193.738,303.063" stroke-width="0.5" stroke-linejoin="miter"/>
   <polyline stroke-linecap="square" stroke="#000000" fill="none" points="205.009,320.335 211.009,326.335" stroke-width="0.5" stroke-linejoin="miter"/>
   <polyline stroke-linecap="square" stroke="#000000" fill="none" points="205.009,326.335 211.009,320.335" stroke-width="0.5" stroke-linejoin="miter"/>
   <polyline stroke-linecap="square" stroke="#000000" fill="none" points="225.017,334.345 231.017,340.345" stroke-width="0.5" stroke-linejoin="miter"/>
   <polyline stroke-linecap="square" stroke="#000000" fill="none" points="225.017,340.345 231.017,334.345" stroke-width="0.5" stroke-linejoin="miter"/>
   <polyline stroke-linecap="square" stroke="#000000" fill="none" points="247.154,344.667 253.154,350.667" stroke-width="0.5" stroke-linejoin="miter"/>
   <polyline stroke-linecap="square" stroke="#000000" fill="none" points="247.154,350.667 253.154,344.667" stroke-width="0.5" stroke-linejoin="miter"/>
   <polyline stroke-linecap="square" stroke="#000000" fill="none" points="270.747,350.989 276.747,356.989" stroke-width="0.5" stroke-linejoin="miter"/>
   <polyline stroke-linecap="square" stroke="#000000" fill="none" points="270.747,356.989 276.747,350.989" stroke-width="0.5" stroke-linejoin="miter"/>
   <polyline stroke-linecap="square" stroke="#000000" fill="none" points="295.08,353.118 301.08,359.118" stroke-width="0.5" stroke-linejoin="miter"/>
   <polyline stroke-linecap="square" stroke="#000000" fill="none" points="295.08,359.118 301.08,353.118" stroke-width="0.5" stroke-linejoin="miter"/>
   <polyline stroke-linecap="square" stroke="#000000" fill="none" points="319.413,350.989 325.413,356.989" stroke-width="0.5" stroke-linejoin="miter"/>
   <polyline stroke-linecap="square" stroke="#000000" fill="none" points="319.413,356.989 325.413,350.989" stroke-width="0.5" stroke-linejoin="miter"/>
   <polyline stroke-linecap="square" stroke="#000000" fill="none" points="343.006,344.667 349.006,350.667" stroke-width="0.5" stroke-linejoin="miter"/>
   <polyline stroke-linecap="square" stroke="#000000" fill="none" points="343.006,350.667 349.006,344.667" stroke-width="0.5" stroke-linejoin="miter"/>
   <polyline stroke-linecap="square" stroke="#000000" fill="none" points="365.143,334.345 371.143,340.345" stroke-width="0.5" stroke-linejoin="miter"/>
   <polyline stroke-linecap="square" stroke="#000000" fill="none" points="365.143,340.345 371.143,334.345" stroke-width="0.5" stroke-linejoin="miter"/>
   <polyline stroke-linecap="square" stroke="#000000" fill="none" points="385.151,320.335 391.151,326.335" stroke-width="0.5" stroke-linejoin="miter"/>
   <polyline stroke-linecap="square" stroke="#000000" fill="none" points="385.151,326.335 391.151,320.335" stroke-width="0.5" stroke-linejoin="miter"/>
   <polyline stroke-linecap="square" stroke="#000000" fill="none" points="402.422,303.063 408.422,309.063" stroke-width="0.5" stroke-linejoin="miter"/>
   <polyline stroke-linecap="square" stroke="#000000" fill="none" points="402.422,309.063 408.422,303.063" stroke-width="0.5" stroke-linejoin="miter"/>
   <polyline stroke-linecap="square" stroke="#000000" fill="none" points="416.432,283.055 422.432,289.055" stroke-width="0.5" stroke-linejoin="miter"/>
   <polyline stroke-linecap="square" stroke="#000000" fill="none" points="416.432,289.055 422.432,283.055" stroke-width="0.5" stroke-linejoin="miter"/>
   <polyline stroke-linecap="square" stroke="#000000" fill="none" points="426.755,260.918 432.755,266.918" stroke-width="0.5" stroke-linejoin="miter"/>
   <polyline stroke-linecap="square" stroke="#000000" fill="none" points="426.755,266.918 432.755,260.918" stroke-width="0.5" stroke-linejoin="miter"/>
   <polyline stroke-linecap="square" stroke="#000000" fill="none" points="433.077,237.325 439.077,243.325" stroke-width="0.5" stroke-linejoin="miter"/>
   <polyline stroke-linecap="square" stroke="#000000" fill="none" points="433.077,243.325 439.077,237.325" stroke-width="0.5" stroke-linejoin="miter"/>
   <polyline stroke-linecap="square" stroke="#000000" fill="none" points="435.206,212.992 441.206,218.992" stroke-width="0.5" stroke-linejoin="miter"/>
   <polyline stroke-linecap="square" stroke="#000000" fill="none" points="435.206,218.992 441.206,212.992" stroke-width="0.5" stroke-linejoin="miter"/>
  </g>
  <clipPath id="cp00576432">
   <polygon points="0,432 576,432 576,0 0,0"/>
  </clipPath>
  <g clip-path="url(#cp00576432)">
   <polygon fill="#ffffff" points="167.906,426.507 428.254,426.507 428.254,410.728 167.906,410.728" shape-rendering="crispEdges"/>
   <text font-style="normal" transform="translate(194.913,422.618) rotate(-0,-0,-4)" font-family="FreeSans" font-size="9" font-weight="normal" xml:space="preserve">
    <tspan y="-0" x="0 6 8 13 18 23 25 29 31 37 40 45 50 " fill="rgb(0,0,0)">Plane's Trace</tspan>
   </text>
   <text font-style="normal" transform="translate(281.696,423.618) rotate(-0,-0,-5)" font-family="FreeSans" font-size="9" font-weight="normal" xml:space="preserve">
    <tspan y="-2" x="0 6 11 15 17 19 24 29 32 34 40 45 49 " fill="rgb(0,0,0)">Daylight Env.</tspan>
   </text>
   <text font-style="normal" transform="translate(368.478,423.118) rotate(-0,-0,-4.5)" font-family="FreeSans" font-size="9" font-weight="normal" xml:space="preserve">
    <tspan y="-1" x="0 7 10 15 20 23 25 31 33 36 41 " fill="rgb(0,0,0)">Great Circ.</tspan>
   </text>
   <polyline stroke-linecap="butt" stroke="#000000" fill="none" points="171.11,418.618 191.709,418.618" stroke-width="0.5" stroke-linejoin="round"/>
   <polyline stroke-linecap="round" stroke="#000000" fill="none" points="184.41,418.618 183.837,420.381 182.337,421.471 180.483,421.471 178.983,420.381 178.41,418.618 178.983,416.854 180.483,415.765 182.337,415.765 183.837,416.854 184.41,418.618" stroke-width="0.5" stroke-linejoin="round"/>
   <polyline stroke-linecap="butt" stroke="#000000" fill="none" points="257.893,418.618 278.491,418.618" stroke-width="0.5" stroke-linejoin="round"/>
   <polyline stroke-linecap="round" stroke="#000000" fill="none" points="268.192,415.618 265.192,421.618 271.192,421.618 268.192,415.618" stroke-width="0.5" stroke-linejoin="round"/>
   <polyline stroke-linecap="butt" stroke="#000000" fill="none" points="344.675,418.618 365.274,418.618" stroke-width="0.5" stroke-linejoin="round"/>
   <polyline stroke-linecap="square" stroke="#000000" fill="none" points="351.975,415.618 357.975,421.618" stroke-width="0.5" stroke-linejoin="miter"/>
   <polyline stroke-linecap="square" stroke="#000000" fill="none" points="351.975,421.618 357.975,415.618" stroke-width="0.5" stroke-linejoin="miter"/>
  </g>
 </g>
</svg>
